<svg xmlns="http://www.w3.org/2000/svg" xmlns:xlink="http://www.w3.org/1999/xlink" fill="none" version="1.1" width="35" height="14" viewBox="0 0 35 14"><defs><linearGradient x1="0" y1="0" x2="1" y2="1" id="master_svg0_60_40894"><stop offset="0%" stop-color="#4FE2C8" stop-opacity="1"/><stop offset="100.0001072883606%" stop-color="#2BC86B" stop-opacity="0.7300000190734863"/></linearGradient><clipPath id="master_svg1_60_44161"><rect x="1" y="1" width="33" height="12" rx="2"/></clipPath></defs><g style="mix-blend-mode:passthrough"><g style="mix-blend-mode:passthrough" clip-path="url(#master_svg1_60_44161)"><rect x="1" y="1" width="33" height="12" rx="2" fill="url(#master_svg0_60_40894)" fill-opacity="1"/><g style="mix-blend-mode:passthrough"><path d="M8.23438,8.2168L8.23438,9.21289L10.51953,9.21289L10.51953,9.64453L5.486328,9.64453L5.486328,9.21289L7.753909999999999,9.21289L7.753909999999999,8.2168L6.01953,8.2168L6.01953,7.77148L7.753909999999999,7.77148L7.753909999999999,6.88477L6.29688,6.88477L6.29688,6.482419999999999Q6.02539,6.66211,5.539062,6.93164L5.324219,6.49414Q6.19922,6.044919999999999,6.79688,5.55273Q7.39453,5.06055,7.78906,4.460938L8.21094,4.460938Q8.99609,5.6543,10.66406,6.482419999999999L10.43555,6.89648Q10.058589999999999,6.71094,9.71094,6.482419999999999L9.71094,6.88477L8.23438,6.88477L8.23438,7.77148L9.986329999999999,7.77148L9.986329999999999,8.2168L8.23438,8.2168ZM8.00586,4.92188Q7.423830000000001,5.732419999999999,6.35547,6.44531L9.65039,6.44531Q8.61719,5.77344,8.00586,4.92188ZM13.4725,7.84375L13.4725,8.24023L17.269399999999997,8.24023L17.269399999999997,8.611329999999999L15.8006,8.611329999999999Q15.9139,8.70703,16.1659,8.93555L16.9217,9.5957L16.628700000000002,9.91406L16.441200000000002,9.73438L16.287,9.589839999999999L12.704920000000001,9.73438L12.57797,9.326170000000001Q13.16,8.97852,13.57406,8.611329999999999L12.04477,8.611329999999999L12.04477,8.24023L13.03305,8.24023L13.03305,6.49414Q12.63852,6.71094,12.15805,6.919919999999999L11.995940000000001,6.50586Q12.6268,6.25977,13.0643,5.98047Q13.5018,5.701169999999999,13.80258,5.37109L12.13461,5.37109L12.13461,4.99414L14.08383,4.99414Q14.27523,4.69336,14.41391,4.339844L14.83969,4.472656Q14.70297,4.79688,14.59359,4.99414L17.1795,4.99414L17.1795,5.37109L15.5838,5.37109Q16.287,6.128909999999999,17.3123,6.42773L17.162,6.85352Q16.6405,6.66797,16.1717,6.38086L13.4725,6.38086L13.4725,6.76953L16.357300000000002,6.76953L16.357300000000002,7.111330000000001L13.4725,7.111330000000001L13.4725,7.50781L16.357300000000002,7.50781L16.357300000000002,7.84375L13.4725,7.84375ZM14.35336,5.37109Q14.10141,5.732419999999999,13.75375,6.00781L15.6502,6.00781Q15.2967,5.714840000000001,15.0311,5.37109L14.35336,5.37109ZM15.8787,9.21289Q15.5545,8.923829999999999,15.3866,8.767579999999999L15.578,8.611329999999999L14.21078,8.611329999999999Q13.70687,9.06836,13.34555,9.31445L15.8787,9.21289ZM22.2497,4.40625L22.2497,6.10352L23.5876,6.10352L23.5876,9.152339999999999Q23.5876,9.41602,23.5251,9.55273Q23.4626,9.691410000000001,23.3063,9.74805Q23.1501,9.80664,22.8493,9.80664L22.1891,9.80664L22.0993,9.36719L22.7067,9.36719Q22.8981,9.36719,22.988,9.33789Q23.0778,9.308589999999999,23.111,9.236329999999999Q23.1442,9.16406,23.1442,9.00781L23.1442,8.66602L20.905900000000003,8.66602L20.905900000000003,9.8418L20.462600000000002,9.8418L20.462600000000002,6.10352L21.8005,6.10352L21.8005,4.40625L22.2497,4.40625ZM19.1481,4.58594Q19.4665,4.80273,20.2165,5.37109L19.970399999999998,5.75586Q19.8083,5.61719,19.1774,5.15625L18.902,4.95117L19.1481,4.58594ZM21.0798,5.8457Q20.7438,5.41406,20.2634,4.91016L20.57,4.62109Q20.9548,5.03516,21.3981,5.54688L21.0798,5.8457ZM23.7673,4.91016Q23.4313,5.33594,22.9216,5.88281L22.6032,5.59961Q23.1325,5.04883,23.4509,4.63477L23.7673,4.91016ZM19.6813,7.09375Q19.3825,6.8418,18.6384,6.25977L18.8903,5.90039Q19.519199999999998,6.34375,19.947,6.70312L19.6813,7.09375ZM20.905900000000003,7.17773L23.1442,7.17773L23.1442,6.52344L20.905900000000003,6.52344L20.905900000000003,7.17773ZM19.7653,7.65234L19.982100000000003,7.72461Q19.82,8.17969,19.310200000000002,9.830079999999999L18.8669,9.68555Q18.9743,9.410160000000001,19.2262,8.62695Q19.4782,7.84375,19.544600000000003,7.57422L19.7653,7.65234ZM20.905900000000003,7.5918L20.905900000000003,8.25781L23.1442,8.25781L23.1442,7.5918L20.905900000000003,7.5918ZM25.6636,6.29688Q26.607,5.996090000000001,27.4995,5.59961Q26.7749,5.28125,25.9214,4.93945L26.1148,4.51367Q26.9839,4.86133,28.0581,5.33594Q28.7964,4.97656,29.7085,4.423828L29.9546,4.81445Q29.1851,5.28125,28.603,5.58203Q29.3413,5.91211,30.2066,6.326169999999999L30.0132,6.75781Q28.8491,6.205080000000001,28.064,5.85156Q27.1167,6.30273,25.8023,6.746090000000001L25.6636,6.29688ZM30.5249,7.58008L28.2808,7.58008L28.2808,9.10352Q28.2808,9.38086,28.2105,9.5332Q28.1421,9.68555,27.98,9.74805Q27.8179,9.8125,27.5171,9.8125L26.8101,9.8125L26.732,9.34961L27.3433,9.34961Q27.5484,9.34961,27.6402,9.32422Q27.7339,9.29688,27.7691,9.2168Q27.8062,9.13477,27.8062,8.96094L27.8062,7.58008L25.4116,7.58008L25.4116,7.13086L27.8062,7.13086L27.8062,6.4043L28.2808,6.4043L28.2808,7.13086L30.5249,7.13086L30.5249,7.58008ZM27.0737,8.138670000000001Q26.7866,8.503910000000001,26.353,8.91797Q25.9214,9.33203,25.562,9.57812L25.2612,9.19922Q25.6343,8.94727,26.0288,8.57227Q26.4253,8.19727,26.732,7.82031L27.0737,8.138670000000001ZM28.982,7.82617Q29.3179,8.066410000000001,29.8374,8.48047Q30.357,8.89453,30.6323,9.14062L30.3687,9.548829999999999Q30.0445,9.253910000000001,29.5484,8.85938Q29.0542,8.46289,28.7066,8.21094L28.982,7.82617Z" fill="#FFFFFF" fill-opacity="1"/></g></g></g></svg>