<svg xmlns="http://www.w3.org/2000/svg" xmlns:xlink="http://www.w3.org/1999/xlink" fill="none" version="1.1" width="35" height="14" viewBox="0 0 35 14"><defs><linearGradient x1="0.09803818166255951" y1="0.1764678955078125" x2="1" y2="0.9240162968635559" id="master_svg0_60_47817"><stop offset="0%" stop-color="#4A92FD" stop-opacity="1"/><stop offset="100.00005960464478%" stop-color="#509DF9" stop-opacity="0.6600000262260437"/></linearGradient><clipPath id="master_svg1_60_44171"><rect x="1" y="1" width="33" height="12" rx="2"/></clipPath></defs><g style="mix-blend-mode:passthrough"><g style="mix-blend-mode:passthrough" clip-path="url(#master_svg1_60_44171)"><g style="mix-blend-mode:passthrough"><path d="M10.38086,9.01953L10.1875,8.74219L10.03711,9.01953L9.12695,9.01953L9.67773,7.99805L9.40234,7.5957L9.06641,9.01953L8.21484,9.01953L9.06641,5.44531L8.84375,5.44531L8.92188,4.875L11.42969,4.875L11.35156,5.44336L11.03906,6.24023L11.35156,6.24023L11.27344,6.78906L10.61328,7.95703L11.35156,9.01953L10.38086,9.01953ZM7.09766,6.125L6.527344,6.125L6.605469,5.55469L7.17578,5.55469L7.26562,4.93555L7.11523,4.75781L8.20117,4.75781L8.08789,5.55469L8.65234,5.55469L8.57422,6.125L8.00391,6.125L7.58984,9.01953L6.677734,9.01953L7.09766,6.125ZM6.0839844,8.80273L6.558594,6.29297L6.984375,6.29297L6.509766,8.80273L6.0839844,8.80273ZM7.87109,8.46094L8.07031,6.29297L8.49609,6.29297L8.29883,8.46094L7.87109,8.46094ZM9.91797,5.44531L9.59961,6.75L9.79297,6.75L10.10352,7.20703L10.34961,6.8125L9.90625,6.8125L10.42773,5.44531L9.91797,5.44531ZM14.28305,5.67969L15.40609,5.67969L15.42953,5.54102L14.29086,5.54102L14.36117,5.02539L15.5018,5.02539L15.50766,4.9707L15.3768,4.74023L16.5096,4.74023L16.4745,5.02539L17.6131,5.02539L17.5428,5.54102L16.4022,5.54102L16.378700000000002,5.67969L17.4998,5.67969L17.3084,7.02344L16.1854,7.02344L16.017400000000002,8.23828L15.04672,8.23828L15.21469,7.02344L14.09164,7.02344L14.28305,5.67969ZM12.22055,8.9375L12.59164,8.347660000000001L12.874839999999999,6.32031L12.63461,6.32031L12.71273,5.75L13.98422,5.75L13.642420000000001,8.17188L14.42758,8.375L17.2772,8.375L17.1991,8.94336L14.00766,8.94336L13.402190000000001,8.76953L13.29477,8.9375L12.22055,8.9375ZM13.833829999999999,8.125L14.26547,7.14648L15.0643,7.14648L14.65023,8.125L13.833829999999999,8.125ZM16.419800000000002,8.11328L16.3241,7.14648L17.1092,7.14648L17.212699999999998,8.11328L16.419800000000002,8.11328ZM13.833829999999999,4.875L14.01937,5.589840000000001L13.07211,5.589840000000001L12.88656,4.875L13.833829999999999,4.875ZM16.6248,6.11523L16.3123,6.11523L16.2518,6.57422L16.5584,6.57422L16.6248,6.11523ZM14.97445,6.57422L15.27914,6.57422L15.33969,6.11523L15.04086,6.11523L14.97445,6.57422ZM19.5622,5.75L19.622700000000002,5.40625L18.823900000000002,5.40625L18.902,4.85352L21.5173,4.85352L21.4391,5.40625L20.7087,5.40625L20.6598,5.75L21.4391,5.75L20.9899,9L18.32,9L18.769199999999998,5.75L19.5622,5.75ZM22.7907,6.40039L22.9274,5.41211L21.7458,5.41211L21.823900000000002,4.8418L23.8395,4.8418L23.5466,6.923830000000001L22.3512,6.923830000000001L22.154,8.37305L23.1735,8.37305L23.4372,8.138670000000001L23.3298,8.99414L21.212600000000002,8.99414L21.572,6.40039L22.7907,6.40039ZM19.136400000000002,7.65234L20.5348,7.65234L20.5759,7.35547L19.9762,7.35547L20.1325,6.24805L19.9528,6.24805L19.7243,7.42969L19.2438,7.42969L19.4665,6.24805L19.3395,6.24805L19.136400000000002,7.65234ZM20.4255,8.496089999999999L20.468400000000003,8.125L19.07,8.125L19.027,8.496089999999999L20.4255,8.496089999999999ZM20.587600000000002,6.24805L20.4802,7L20.630499999999998,7L20.738,6.24805L20.587600000000002,6.24805ZM20.0485,5.75L20.2048,5.75L20.2516,5.40625L20.107100000000003,5.40625L20.0485,5.75ZM27.2573,6.5L27.5698,6L26.6695,6L26.7534,5.42969L27.2632,5.42969L27.2222,4.94922L27.0542,4.75781L28.0327,4.75781L28.0796,5.42969L28.5777,5.42969L28.8179,4.75781L29.6226,4.75781L29.3823,5.42969L29.8198,5.42969L29.7359,6L28.6441,6L28.3433,6.5L29.7905,6.5L29.7124,7.07031L28.9917,7.07031L29.5503,8.214839999999999L28.5718,8.214839999999999L28.0132,7.07031L28.0015,7.07031L27.3609,8.15625L26.2495,8.15625L26.9097,7.07031L26.3999,7.07031L26.478,6.5L27.2573,6.5ZM24.6597,8.94336L24.9722,8.35547L25.2417,6.41602L25.0132,6.41602L25.0972,5.84961L26.3511,5.84961L26.0152,8.20898L26.8491,8.375L29.6402,8.375L29.562,8.94336L26.3706,8.94336L25.7769,8.76953L25.6851,8.94336L24.6597,8.94336ZM26.1714,4.86523L26.3648,5.621090000000001L25.4273,5.621090000000001L25.2359,4.86523L26.1714,4.86523Z" fill="#4C9AFA" fill-opacity="1"/></g><rect x="1.5" y="1.5" width="32" height="11" rx="1.5" stroke="url(#master_svg0_60_47817)" fill-opacity="0" fill="none" stroke-width="1"/></g></g></svg>