<svg xmlns="http://www.w3.org/2000/svg" xmlns:xlink="http://www.w3.org/1999/xlink" fill="none" version="1.1" width="32" height="32" viewBox="-3 -4 32 32"><defs><clipPath id="master_svg0_171_864"><rect x="0" y="0" width="24" height="24" rx="0"/></clipPath></defs><g style="mix-blend-mode:passthrough" clip-path="url(#master_svg0_171_864)"><g style="mix-blend-mode:passthrough" transform="matrix(0.9659258127212524,0.2588190734386444,-0.2588190734386444,0.9659258127212524,0.9383630109608418,-1.646484932083581)"><g style="mix-blend-mode:passthrough"><path d="M19.555728186035154,5.094144319152832C19.555728186035154,4.590064319152832,19.006828186035158,4.277824319152832,18.573528186035155,4.535444319152832C18.573528186035155,4.535444319152832,8.741428186035156,10.381564319152833,8.741428186035156,10.381564319152833C8.227148186035157,10.687344319152832,8.364248186035157,11.466824319152831,8.952008186035156,11.578774319152831C8.952008186035156,11.578774319152831,13.408538186035155,12.427644319152831,13.408538186035155,12.427644319152831C13.871508186035157,12.515824319152832,14.297268186035156,12.741144319152832,14.630528186035157,13.074444319152832C14.630528186035157,13.074444319152832,18.446128186035157,16.89004431915283,18.446128186035157,16.89004431915283C18.855628186035155,17.29954431915283,19.555728186035154,17.009444319152834,19.555728186035154,16.430444319152834C19.555728186035154,16.430444319152834,19.555728186035154,5.094144319152832,19.555728186035154,5.094144319152832C19.555728186035154,5.094144319152832,19.555728186035154,5.094144319152832,19.555728186035154,5.094144319152832ZM17.704728186035155,3.074235319152832C19.271128186035156,2.142821319152832,21.255728186035157,3.271678319152832,21.255728186035157,5.094144319152832C21.255728186035157,5.094144319152832,21.255728186035157,16.430444319152834,21.255728186035157,16.430444319152834C21.255728186035157,18.524044319152832,18.724428186035155,19.572544319152833,17.244028186035155,18.09214431915283C17.244028186035155,18.09214431915283,13.428448186035157,14.276544319152832,13.428448186035157,14.276544319152832C13.336268186035156,14.184344319152832,13.218508186035155,14.122044319152833,13.090448186035157,14.097644319152833C13.090448186035157,14.097644319152833,8.633918186035157,13.248744319152832,8.633918186035157,13.248744319152832C6.508960186035156,12.844044319152832,6.013288186035156,10.025884319152832,7.872598186035156,8.920344319152832C7.872598186035156,8.920344319152832,17.704728186035155,3.074235319152832,17.704728186035155,3.074235319152832C17.704728186035155,3.074235319152832,17.704728186035155,3.074235319152832,17.704728186035155,3.074235319152832Z" fill-rule="evenodd" fill="#000000" fill-opacity="1"/></g><g style="mix-blend-mode:passthrough" transform="matrix(0.4788520932197571,-0.8778955936431885,0.8778955936431885,0.4788520932197571,-5.625963485053518,18.737070558690505)"><path d="M12.96871042251587,14.957121467590332C12.96871042251587,14.487679467590333,13.34926842251587,14.107121467590332,13.818710422515869,14.107121467590332C13.818710422515869,14.107121467590332,25.16681042251587,14.107121467590332,25.16681042251587,14.107121467590332C25.16681042251587,14.107121467590332,25.16681042251587,15.807121467590331,25.16681042251587,15.807121467590331C25.16681042251587,15.807121467590331,13.818710422515869,15.807121467590331,13.818710422515869,15.807121467590331C13.34926842251587,15.807121467590331,12.96871042251587,15.426561467590332,12.96871042251587,14.957121467590332C12.96871042251587,14.957121467590332,12.96871042251587,14.957121467590332,12.96871042251587,14.957121467590332Z" fill-rule="evenodd" fill="#000000" fill-opacity="1"/></g></g></g></svg>