<svg xmlns="http://www.w3.org/2000/svg" xmlns:xlink="http://www.w3.org/1999/xlink" fill="none" version="1.1" width="12" height="12" viewBox="0 0 12 12"><defs><clipPath id="master_svg0_60_44142"><rect x="0" y="0" width="12" height="12" rx="0"/></clipPath></defs><g style="mix-blend-mode:passthrough" clip-path="url(#master_svg0_60_44142)"><g style="mix-blend-mode:passthrough"><g style="mix-blend-mode:passthrough"><path d="M5.9999878883361815,1.9250184059143067C3.749427888336182,1.9250184059143067,1.9249878883361817,3.749458405914307,1.9249878883361817,6.0000184059143065C1.9249878883361817,8.250568405914308,3.749427888336182,10.075018405914307,5.9999878883361815,10.075018405914307C8.250537888336183,10.075018405914307,10.074987888336182,8.250568405914308,10.074987888336182,6.0000184059143065C10.074987888336182,3.749458405914307,8.250537888336183,1.9250184059143067,5.9999878883361815,1.9250184059143067C5.9999878883361815,1.9250184059143067,5.9999878883361815,1.9250184059143067,5.9999878883361815,1.9250184059143067ZM1.0749878883361816,6.0000184059143065C1.0749878883361816,3.2800184059143067,3.2799878883361817,1.0750184059143066,5.9999878883361815,1.0750184059143066C8.719987888336181,1.0750184059143066,10.924987888336181,3.2800184059143067,10.924987888336181,6.0000184059143065C10.924987888336181,8.720018405914306,8.719987888336181,10.925018405914306,5.9999878883361815,10.925018405914306C3.2799878883361817,10.925018405914306,1.0749878883361816,8.720018405914306,1.0749878883361816,6.0000184059143065C1.0749878883361816,6.0000184059143065,1.0749878883361816,6.0000184059143065,1.0749878883361816,6.0000184059143065Z" fill-rule="evenodd" fill="#9E9E9E" fill-opacity="1"/></g><g style="mix-blend-mode:passthrough"><path d="M3.699467888336182,5.199498405914307C3.8654408883361815,5.033525205914307,4.134537888336181,5.033525205914307,4.300507888336182,5.199498405914307C4.300507888336182,5.199498405914307,5.946947888336181,6.8459484059143065,5.946947888336181,6.8459484059143065C5.976247888336182,6.875238405914306,6.023737888336182,6.875238405914306,6.053017888336182,6.8459484059143065C6.053017888336182,6.8459484059143065,7.699467888336182,5.199498405914307,7.699467888336182,5.199498405914307C7.8654378883361815,5.033525205914307,8.134537888336181,5.033525205914307,8.300507888336181,5.199498405914307C8.466487888336182,5.365471405914307,8.466487888336182,5.634568405914306,8.300507888336181,5.800538405914307C8.300507888336181,5.800538405914307,6.654067888336181,7.446978405914306,6.654067888336181,7.446978405914306C6.2928278883361815,7.808228405914306,5.7071478883361815,7.808218405914307,5.3459178883361815,7.446978405914306C5.3459178883361815,7.446978405914306,3.699467888336182,5.800538405914307,3.699467888336182,5.800538405914307C3.5334946883361815,5.634568405914306,3.5334946883361815,5.365471405914307,3.699467888336182,5.199498405914307C3.699467888336182,5.199498405914307,3.699467888336182,5.199498405914307,3.699467888336182,5.199498405914307Z" fill-rule="evenodd" fill="#9E9E9E" fill-opacity="1"/></g></g></g></svg>