<svg xmlns="http://www.w3.org/2000/svg" xmlns:xlink="http://www.w3.org/1999/xlink" fill="none" version="1.1" width="36" height="36" viewBox="7 9 36 36"><defs><clipPath id="master_svg0_41_24802"><rect x="0" y="0" width="51" height="73" rx="0"/></clipPath><clipPath id="master_svg1_41_32345"><rect x="8.5" y="8.624847412109375" width="34" height="34" rx="0"/></clipPath><linearGradient x1="0.5" y1="0" x2="0.5" y2="1" id="master_svg2_12_1920"><stop offset="0%" stop-color="#0DC4B6" stop-opacity="1"/><stop offset="100%" stop-color="#1AD1A9" stop-opacity="0.7400000095367432"/></linearGradient></defs><g style="mix-blend-mode:passthrough" clip-path="url(#master_svg0_41_24802)"><g style="mix-blend-mode:passthrough" clip-path="url(#master_svg1_41_32345)"><g style="mix-blend-mode:passthrough"><path d="M25.52156588592529,12.537872314453125C22.509315885925293,12.537872314453125,20.067405885925293,14.979782314453125,20.067405885925293,17.992042314453126L20.067405885925293,18.271672314453124C16.931075885925292,18.712442314453124,14.446715885925293,21.275702314453127,14.182166885925293,24.516372314453125L13.947817885925293,27.387172314453124L13.319841785925293,34.15767231445312C12.993593885925293,37.67517231445312,15.761645885925294,40.711872314453124,19.294195885925294,40.711872314453124L31.706065885925295,40.711872314453124C35.2047658859253,40.711872314453124,37.96136588592529,37.730472314453124,37.68766588592529,34.242472314453124L36.94456588592529,24.772772314453125C36.90836588592529,24.311972314453126,36.82086588592529,23.866672314453126,36.68766588592529,23.442272314453128C36.024665885925295,20.721732314453124,33.756465885925294,18.662452314453127,30.97576588592529,18.271662314453124L30.97576588592529,17.992042314453126C30.97576588592529,14.979782314453125,28.533865885925294,12.537872314453125,25.52156588592529,12.537872314453125ZM22.475745885925292,17.992042314453126L22.475745885925292,18.204562314453124L28.56736588592529,18.204562314453124L28.56736588592529,17.992042314453126C28.56736588592529,16.309872314453123,27.203765885925293,14.946202314453124,25.52156588592529,14.946202314453124C23.839365885925293,14.946202314453124,22.475745885925292,16.309872314453123,22.475745885925292,17.992042314453126ZM22.338785885925294,32.05917231445312Q23.909965885925295,32.62487231445313,25.522765885925295,32.62487231445313Q27.135465885925292,32.62487231445313,28.706765885925293,32.05917231445312C28.815365885925292,32.01997231445313,28.92996588592529,31.999972314453125,29.045465885925292,31.999972314453125C29.59776588592529,31.999972314453125,30.045465885925292,32.44767231445313,30.045465885925292,32.999972314453125C30.045465885925292,33.421672314453126,29.780965885925294,33.79807231445312,29.38426588592529,33.940872314453124Q27.484565885925292,34.62487231445313,25.522765885925295,34.62487231445313Q23.56096588592529,34.62487231445313,21.661265885925292,33.940872314453124C21.264525885925295,33.79807231445312,21.000025885925293,33.421672314453126,21.000025885925293,32.999972314453125C21.000025885925293,32.44767231445313,21.447735885925294,31.999972314453125,22.000025885925293,31.999972314453125C22.11551588592529,31.999972314453125,22.230125885925293,32.01997231445313,22.338785885925294,32.05917231445312Z" fill-rule="evenodd" fill="url(#master_svg2_12_1920)" fill-opacity="1"/></g></g></g></svg>