<svg xmlns="http://www.w3.org/2000/svg" xmlns:xlink="http://www.w3.org/1999/xlink" fill="none" version="1.1" width="38" height="38" viewBox="3 3 38 38"><defs><clipPath id="master_svg0_60_42215"><rect x="0" y="0" width="44.000003814697266" height="44.000003814697266" rx="0"/></clipPath></defs><g style="mix-blend-mode:passthrough" clip-path="url(#master_svg0_60_42215)"><g style="mix-blend-mode:passthrough"><path d="M34.088260400390624,10.799350200195313C33.408260400390624,9.779283200195312,32.263360400390624,9.166580200195312,31.037460400390625,9.166580200195312C31.037460400390625,9.166580200195312,12.962170400390626,9.166580200195312,12.962170400390626,9.166580200195312C11.736200400390626,9.166580200195312,10.591360400390625,9.779283200195312,9.911320400390625,10.799340200195312C9.911320400390625,10.799340200195312,7.948975400390625,13.742850200195313,7.948975400390625,13.742850200195313C7.704208400390625,14.110010200195312,7.529024400390625,14.516320200195313,7.429542900390625,14.941580200195313C7.429542900390625,14.941580200195313,36.570060400390624,14.941580200195313,36.570060400390624,14.941580200195313C36.47066040039063,14.516320200195313,36.295460400390624,14.110010200195312,36.050660400390626,13.742850200195313C36.050660400390626,13.742850200195313,34.088260400390624,10.799350200195313,34.088260400390624,10.799350200195313C34.088260400390624,10.799350200195313,34.088260400390624,10.799350200195313,34.088260400390624,10.799350200195313ZM36.666460400390626,18.058240200195314C36.666460400390626,18.058240200195314,7.333160400390625,18.058240200195314,7.333160400390625,18.058240200195314C7.333160400390625,18.058240200195314,7.333160400390625,31.166580200195312,7.333160400390625,31.166580200195312C7.333160400390625,33.19168020019531,8.974780400390625,34.83328020019531,10.999830400390625,34.83328020019531C10.999830400390625,34.83328020019531,32.999860400390624,34.83328020019531,32.999860400390624,34.83328020019531C35.024960400390626,34.83328020019531,36.666460400390626,33.19168020019531,36.666460400390626,31.166580200195312C36.666460400390626,31.166580200195312,36.666460400390626,18.058240200195314,36.666460400390626,18.058240200195314C36.666460400390626,18.058240200195314,36.666460400390626,18.058240200195314,36.666460400390626,18.058240200195314ZM16.774820400390624,21.999880200195314C16.774820400390624,22.860580200195315,17.472560400390627,23.558280200195313,18.333160400390625,23.558280200195313C18.333160400390625,23.558280200195313,25.666460400390626,23.558280200195313,25.666460400390626,23.558280200195313C26.527060400390624,23.558280200195313,27.224860400390625,22.860580200195315,27.224860400390625,21.999880200195314C27.224860400390625,21.139280200195312,26.527060400390624,20.44158020019531,25.666460400390626,20.44158020019531C25.666460400390626,20.44158020019531,18.333160400390625,20.44158020019531,18.333160400390625,20.44158020019531C17.472560400390627,20.44158020019531,16.774820400390624,21.139280200195312,16.774820400390624,21.999880200195314C16.774820400390624,21.999880200195314,16.774820400390624,21.999880200195314,16.774820400390624,21.999880200195314Z" fill-rule="evenodd" fill="#FFFFFF" fill-opacity="1"/></g></g></svg>