<svg xmlns="http://www.w3.org/2000/svg" xmlns:xlink="http://www.w3.org/1999/xlink" fill="none" version="1.1" width="36" height="36" viewBox="7 9 36 36"><defs><clipPath id="master_svg0_41_24782"><rect x="0" y="0" width="51" height="73" rx="0"/></clipPath><clipPath id="master_svg1_41_31841"><rect x="4.5" y="7" width="42" height="42" rx="0"/></clipPath><linearGradient x1="0.5" y1="0" x2="0.5" y2="1" id="master_svg2_12_1920"><stop offset="0%" stop-color="#0DC4B6" stop-opacity="1"/><stop offset="100%" stop-color="#1AD1A9" stop-opacity="0.7400000095367432"/></linearGradient></defs><g style="mix-blend-mode:passthrough" clip-path="url(#master_svg0_41_24782)"><g style="mix-blend-mode:passthrough" clip-path="url(#master_svg1_41_31841)"><g style="mix-blend-mode:passthrough"><path d="M37.03893896484375,17.30861103515625C36.38983896484375,16.33491403515625,35.29693896484375,15.75006103515625,34.12673896484375,15.75006103515625C34.12673896484375,15.75006103515625,16.87308896484375,15.75006103515625,16.87308896484375,15.75006103515625C15.70283896484375,15.75006103515625,14.61003896484375,16.33491403515625,13.96090896484375,17.30861103515625C13.96090896484375,17.30861103515625,12.08776196484375,20.11832103515625,12.08776196484375,20.11832103515625C11.85412096484375,20.46879103515625,11.68689996484375,20.856631035156248,11.59194046484375,21.26256103515625C11.59194046484375,21.26256103515625,39.40783896484375,21.26256103515625,39.40783896484375,21.26256103515625C39.31303896484375,20.856631035156248,39.14573896484375,20.46879103515625,38.91213896484375,20.11832103515625C38.91213896484375,20.11832103515625,37.03893896484375,17.30861103515625,37.03893896484375,17.30861103515625C37.03893896484375,17.30861103515625,37.03893896484375,17.30861103515625,37.03893896484375,17.30861103515625ZM39.49993896484375,24.23756103515625C39.49993896484375,24.23756103515625,11.49993896484375,24.23756103515625,11.49993896484375,24.23756103515625C11.49993896484375,24.23756103515625,11.49993896484375,36.75006103515625,11.49993896484375,36.75006103515625C11.49993896484375,38.68306103515625,13.06693896484375,40.25006103515625,14.99993896484375,40.25006103515625C14.99993896484375,40.25006103515625,35.99993896484375,40.25006103515625,35.99993896484375,40.25006103515625C37.93293896484375,40.25006103515625,39.49993896484375,38.68306103515625,39.49993896484375,36.75006103515625C39.49993896484375,36.75006103515625,39.49993896484375,24.23756103515625,39.49993896484375,24.23756103515625C39.49993896484375,24.23756103515625,39.49993896484375,24.23756103515625,39.49993896484375,24.23756103515625ZM20.51243896484375,28.00006103515625C20.51243896484375,28.82156103515625,21.17841896484375,29.48756103515625,21.99993896484375,29.48756103515625C21.99993896484375,29.48756103515625,28.99993896484375,29.48756103515625,28.99993896484375,29.48756103515625C29.82133896484375,29.48756103515625,30.48743896484375,28.82156103515625,30.48743896484375,28.00006103515625C30.48743896484375,27.17856103515625,29.82133896484375,26.51256103515625,28.99993896484375,26.51256103515625C28.99993896484375,26.51256103515625,21.99993896484375,26.51256103515625,21.99993896484375,26.51256103515625C21.17841896484375,26.51256103515625,20.51243896484375,27.17856103515625,20.51243896484375,28.00006103515625C20.51243896484375,28.00006103515625,20.51243896484375,28.00006103515625,20.51243896484375,28.00006103515625Z" fill-rule="evenodd" fill="url(#master_svg2_12_1920)" fill-opacity="1"/></g></g></g></svg>