<svg xmlns="http://www.w3.org/2000/svg" xmlns:xlink="http://www.w3.org/1999/xlink" fill="none" version="1.1" width="36" height="36" viewBox="7 9 36 36"><defs><clipPath id="master_svg0_41_24792"><rect x="0" y="0" width="51" height="73" rx="0"/></clipPath><clipPath id="master_svg1_41_31958"><rect x="4.499969482421875" y="6.69598388671875" width="42" height="42" rx="0"/></clipPath><linearGradient x1="0.5" y1="0" x2="0.5" y2="1" id="master_svg2_12_1920"><stop offset="0%" stop-color="#0DC4B6" stop-opacity="1"/><stop offset="100%" stop-color="#1AD1A9" stop-opacity="0.7400000095367432"/></linearGradient></defs><g style="mix-blend-mode:passthrough" clip-path="url(#master_svg0_41_24792)"><g style="mix-blend-mode:passthrough" clip-path="url(#master_svg1_41_31958)"><g style="mix-blend-mode:passthrough"><g style="mix-blend-mode:passthrough"><path d="M25.499969482421875,13.69598388671875C17.767979482421875,13.69598388671875,11.499969482421875,19.96399388671875,11.499969482421875,27.69598388671875C11.499969482421875,27.69598388671875,11.499969482421875,41.69598388671875,11.499969482421875,41.69598388671875C11.499969482421875,41.69598388671875,25.499969482421875,41.69598388671875,25.499969482421875,41.69598388671875C33.231969482421874,41.69598388671875,39.499969482421875,35.42798388671875,39.499969482421875,27.69598388671875C39.499969482421875,19.96399388671875,33.231969482421874,13.69598388671875,25.499969482421875,13.69598388671875C25.499969482421875,13.69598388671875,25.499969482421875,13.69598388671875,25.499969482421875,13.69598388671875ZM19.137019482421877,30.08218388671875C20.454879482421873,30.08218388671875,21.523169482421874,29.01388388671875,21.523169482421874,27.69598388671875C21.523169482421874,26.37818388671875,20.454879482421873,25.309783886718748,19.137019482421877,25.309783886718748C17.819169482421877,25.309783886718748,16.750829482421874,26.37818388671875,16.750829482421874,27.69598388671875C16.750829482421874,29.01388388671875,17.819169482421877,30.08218388671875,19.137019482421877,30.08218388671875C19.137019482421877,30.08218388671875,19.137019482421877,30.08218388671875,19.137019482421877,30.08218388671875ZM27.885969482421874,27.69598388671875C27.885969482421874,29.01388388671875,26.817669482421877,30.08218388671875,25.499769482421875,30.08218388671875C24.181969482421877,30.08218388671875,23.113569482421873,29.01388388671875,23.113569482421873,27.69598388671875C23.113569482421873,26.37818388671875,24.181969482421877,25.309783886718748,25.499769482421875,25.309783886718748C26.817669482421877,25.309783886718748,27.885969482421874,26.37818388671875,27.885969482421874,27.69598388671875C27.885969482421874,27.69598388671875,27.885969482421874,27.69598388671875,27.885969482421874,27.69598388671875ZM31.863869482421876,30.08218388671875C33.18156948242188,30.08218388671875,34.249969482421875,29.01388388671875,34.249969482421875,27.69598388671875C34.249969482421875,26.37818388671875,33.18156948242188,25.309783886718748,31.863869482421876,25.309783886718748C30.545869482421875,25.309783886718748,29.477569482421874,26.37818388671875,29.477569482421874,27.69598388671875C29.477569482421874,29.01388388671875,30.545869482421875,30.08218388671875,31.863869482421876,30.08218388671875C31.863869482421876,30.08218388671875,31.863869482421876,30.08218388671875,31.863869482421876,30.08218388671875Z" fill-rule="evenodd" fill="url(#master_svg2_12_1920)" fill-opacity="1"/></g></g></g></g></svg>