<svg xmlns="http://www.w3.org/2000/svg" xmlns:xlink="http://www.w3.org/1999/xlink" fill="none" version="1.1" width="24" height="24" viewBox="0 0 24 24"><defs><clipPath id="master_svg0_60_43132"><rect x="0" y="0" width="24" height="24" rx="0"/></clipPath><linearGradient x1="0.5" y1="0" x2="0.5" y2="1" id="master_svg1_12_1920"><stop offset="0%" stop-color="#0DC4B6" stop-opacity="1"/><stop offset="100%" stop-color="#1AD1A9" stop-opacity="0.7400000095367432"/></linearGradient></defs><g style="mix-blend-mode:passthrough" clip-path="url(#master_svg0_60_43132)"><g style="mix-blend-mode:passthrough"><path d="M11.85,20.7C16.7377,20.7,20.7,16.7377,20.7,11.85C20.7,6.96228,16.7377,3,11.85,3C6.96228,3,3,6.96228,3,11.85C3,16.7377,6.96228,20.7,11.85,20.7C11.85,20.7,11.85,20.7,11.85,20.7ZM15.5318,11.15715C15.8972,10.78808,15.8972,10.18971,15.5318,9.820640000000001C15.1665,9.45158,14.5741,9.45158,14.2087,9.820640000000001C14.2087,9.820640000000001,11.4462,12.61127,11.4462,12.61127C11.38196,12.67617,11.27788,12.67644,11.21331,12.61186C11.21331,12.61186,10.20964,11.60822,10.20964,11.60822C9.84243,11.24103,9.25009,11.24406,8.88659,11.61499C8.52309,11.98591,8.52608,12.58428,8.89328,12.95147C8.89328,12.95147,9.89696,13.9551,9.89696,13.9551C10.693290000000001,14.7515,11.97693,14.7482,12.76927,13.9478C12.76927,13.9478,15.5318,11.15715,15.5318,11.15715C15.5318,11.15715,15.5318,11.15715,15.5318,11.15715Z" fill-rule="evenodd" fill="url(#master_svg1_12_1920)" fill-opacity="1"/></g></g></svg>