<svg xmlns="http://www.w3.org/2000/svg" xmlns:xlink="http://www.w3.org/1999/xlink" fill="none" version="1.1" width="24" height="24" viewBox="0 0 24 24"><defs><clipPath id="master_svg0_41_19595"><rect x="0" y="0" width="24" height="24" rx="0"/></clipPath></defs><g style="mix-blend-mode:passthrough"><g style="mix-blend-mode:passthrough" clip-path="url(#master_svg0_41_19595)"><g style="mix-blend-mode:passthrough"><g style="mix-blend-mode:passthrough"><path d="M8.000000095367431,6.850000095367432C6.260300095367432,6.850000095367432,4.850000095367432,8.260300095367432,4.850000095367432,10.000000095367431C4.850000095367432,10.000000095367431,4.850000095367432,14.000000095367431,4.850000095367432,14.000000095367431C4.850000095367432,15.739700095367432,6.260300095367432,17.15000009536743,8.000000095367431,17.15000009536743C8.000000095367431,17.15000009536743,16.000000095367433,17.15000009536743,16.000000095367433,17.15000009536743C17.50060009536743,17.15000009536743,18.75610009536743,16.10070009536743,19.07290009536743,14.695810095367431C17.954000095367434,14.311100095367431,17.15000009536743,13.249440095367431,17.15000009536743,12.000000095367431C17.15000009536743,10.750560095367431,17.954000095367434,9.688900095367432,19.07290009536743,9.304190095367431C18.75610009536743,7.8993000953674315,17.50060009536743,6.850000095367432,16.000000095367433,6.850000095367432C16.000000095367433,6.850000095367432,8.000000095367431,6.850000095367432,8.000000095367431,6.850000095367432C8.000000095367431,6.850000095367432,8.000000095367431,6.850000095367432,8.000000095367431,6.850000095367432ZM3.1500000953674316,10.000000095367431C3.1500000953674316,7.321420095367431,5.321420095367431,5.150000095367432,8.000000095367431,5.150000095367432C8.000000095367431,5.150000095367432,16.000000095367433,5.150000095367432,16.000000095367433,5.150000095367432C18.678600095367432,5.150000095367432,20.85000009536743,7.321420095367431,20.85000009536743,10.000000095367431C20.85000009536743,10.469440095367432,20.469400095367433,10.850000095367431,20.000000095367433,10.850000095367431C19.36490009536743,10.850000095367431,18.85000009536743,11.364870095367433,18.85000009536743,12.000000095367431C18.85000009536743,12.635130095367431,19.36490009536743,13.150000095367432,20.000000095367433,13.150000095367432C20.469400095367433,13.150000095367432,20.85000009536743,13.53056009536743,20.85000009536743,14.000000095367431C20.85000009536743,16.678600095367432,18.678600095367432,18.85000009536743,16.000000095367433,18.85000009536743C16.000000095367433,18.85000009536743,8.000000095367431,18.85000009536743,8.000000095367431,18.85000009536743C5.321420095367431,18.85000009536743,3.1500000953674316,16.678600095367432,3.1500000953674316,14.000000095367431C3.1500000953674316,14.000000095367431,3.1500000953674316,10.000000095367431,3.1500000953674316,10.000000095367431C3.1500000953674316,10.000000095367431,3.1500000953674316,10.000000095367431,3.1500000953674316,10.000000095367431Z" fill-rule="evenodd" fill="#000000" fill-opacity="1"/></g><g style="mix-blend-mode:passthrough" transform="matrix(0,1,-1,0,21.400000274181366,-9.399999916553497)"><path d="M15.400000095367432,6.7000001788139345C15.400000095367432,6.313401178813934,15.713401095367432,6.000000178813934,16.10000009536743,6.000000178813934C16.10000009536743,6.000000178813934,18.700000095367432,6.000000178813934,18.700000095367432,6.000000178813934C19.08660009536743,6.000000178813934,19.40000009536743,6.313401178813934,19.40000009536743,6.7000001788139345C19.40000009536743,7.086600178813934,19.08660009536743,7.400000178813935,18.700000095367432,7.400000178813935C18.700000095367432,7.400000178813935,16.10000009536743,7.400000178813935,16.10000009536743,7.400000178813935C15.713401095367432,7.400000178813935,15.400000095367432,7.086600178813934,15.400000095367432,6.7000001788139345C15.400000095367432,6.7000001788139345,15.400000095367432,6.7000001788139345,15.400000095367432,6.7000001788139345Z" fill-rule="evenodd" fill="#000000" fill-opacity="1"/></g><g style="mix-blend-mode:passthrough" transform="matrix(0,1,-1,0,29.40000057220459,-1.3999996185302734)"><path d="M15.400000095367432,14.700000476837157C15.400000095367432,14.313401476837159,15.713401095367432,14.000000476837158,16.10000009536743,14.000000476837158C16.10000009536743,14.000000476837158,18.700000095367432,14.000000476837158,18.700000095367432,14.000000476837158C19.08660009536743,14.000000476837158,19.40000009536743,14.313401476837159,19.40000009536743,14.700000476837157C19.40000009536743,15.086600476837159,19.08660009536743,15.400000476837159,18.700000095367432,15.400000476837159C18.700000095367432,15.400000476837159,16.10000009536743,15.400000476837159,16.10000009536743,15.400000476837159C15.713401095367432,15.400000476837159,15.400000095367432,15.086600476837159,15.400000095367432,14.700000476837157C15.400000095367432,14.700000476837157,15.400000095367432,14.700000476837157,15.400000095367432,14.700000476837157Z" fill-rule="evenodd" fill="#000000" fill-opacity="1"/></g><g style="mix-blend-mode:passthrough" transform="matrix(0,1,-1,0,26.40000009536743,-4.400000095367432)"><path d="M15.400000095367432,11.7C15.400000095367432,11.313401,15.713401095367432,11,16.10000009536743,11C16.10000009536743,11,16.700000095367432,11,16.700000095367432,11C17.08660009536743,11,17.40000009536743,11.313401,17.40000009536743,11.7C17.40000009536743,12.0866,17.08660009536743,12.4,16.700000095367432,12.4C16.700000095367432,12.4,16.10000009536743,12.4,16.10000009536743,12.4C15.713401095367432,12.4,15.400000095367432,12.0866,15.400000095367432,11.7C15.400000095367432,11.7,15.400000095367432,11.7,15.400000095367432,11.7Z" fill-rule="evenodd" fill="#000000" fill-opacity="1"/></g></g></g></g></svg>