<svg xmlns="http://www.w3.org/2000/svg" xmlns:xlink="http://www.w3.org/1999/xlink" fill="none" version="1.1" width="74" height="74" viewBox="0 0 74 74"><defs><linearGradient x1="0.5" y1="0" x2="0.5" y2="1" id="master_svg0_12_1920"><stop offset="0%" stop-color="#0DC4B6" stop-opacity="1"/><stop offset="100%" stop-color="#1AD1A9" stop-opacity="0.7400000095367432"/></linearGradient><clipPath id="master_svg1_41_02364"><rect x="5" y="5" width="64" height="64" rx="32"/></clipPath></defs><g style="mix-blend-mode:passthrough"><g style="mix-blend-mode:passthrough" clip-path="url(#master_svg1_41_02364)"><rect x="5" y="5" width="64" height="64" rx="32" fill="url(#master_svg0_12_1920)" fill-opacity="1"/><g style="mix-blend-mode:passthrough"><path d="M44.7719,41.143100000000004C47.4542,38.8631,49,35.5204,49,32C49,25.37258,43.6274,20,37,20C30.3726,20,25,25.37258,25,32C25,35.4116,26.4521,38.6619,28.9932,40.938199999999995C15.46906,44.3725,6,56.5466,6,70.5C6,87.3447,19.6553,101,36.5,101C53.3447,101,67,87.3447,67,70.5C67,56.8411,57.9189,44.8476,44.7719,41.143100000000004Z" fill-rule="evenodd" fill="#FFFFFF" fill-opacity="1"/></g></g></g></svg>