<svg xmlns="http://www.w3.org/2000/svg" xmlns:xlink="http://www.w3.org/1999/xlink" fill="none" version="1.1" width="32" height="32" viewBox="-4 -7 32 32"><defs><clipPath id="master_svg0_60_43602"><rect x="0" y="0" width="24" height="24" rx="0"/></clipPath></defs><g style="mix-blend-mode:passthrough" clip-path="url(#master_svg0_60_43602)"><g style="mix-blend-mode:passthrough"><g style="mix-blend-mode:passthrough" transform="matrix(0.7071067690849304,0.7071067690849304,-0.7071067690849304,0.7071067690849304,6.461115025566599,-10.002674298897134)"><g style="mix-blend-mode:passthrough"><path d="M15.304853677749634,6.258168319702149C15.304853677749634,4.347128319702149,16.854063677749632,2.7979183197021484,18.765103677749632,2.7979183197021484C20.67615367774963,2.7979183197021484,22.225363677749634,4.347128319702149,22.225363677749634,6.258168319702149C22.225363677749634,6.258168319702149,22.225363677749634,17.552718319702148,22.225363677749634,17.552718319702148C22.225363677749634,18.29471831970215,21.936013677749635,19.007418319702147,21.418813677749633,19.539418319702147C21.418813677749633,19.539418319702147,20.091563677749633,20.90461831970215,20.091563677749633,20.90461831970215C19.365103677749634,21.651818319702148,18.165103677749634,21.651818319702148,17.438653677749635,20.90461831970215C17.438653677749635,20.90461831970215,16.111395677749634,19.539418319702147,16.111395677749634,19.539418319702147C15.594199677749634,19.007418319702147,15.304853677749634,18.29471831970215,15.304853677749634,17.552718319702148C15.304853677749634,17.552718319702148,15.304853677749634,6.258168319702149,15.304853677749634,6.258168319702149C15.304853677749634,6.258168319702149,15.304853677749634,6.258168319702149,15.304853677749634,6.258168319702149ZM18.765103677749632,4.497918319702149C17.792943677749633,4.497918319702149,17.004853677749633,5.286008319702148,17.004853677749633,6.258168319702149C17.004853677749633,6.258168319702149,17.004853677749633,17.552718319702148,17.004853677749633,17.552718319702148C17.004853677749633,17.85211831970215,17.121603677749633,18.139718319702148,17.330303677749633,18.354418319702148C17.330303677749633,18.354418319702148,18.657553677749632,19.71961831970215,18.657553677749632,19.71961831970215C18.716453677749634,19.780218319702147,18.813753677749634,19.780218319702147,18.872653677749632,19.71961831970215C18.872653677749632,19.71961831970215,20.199913677749635,18.354418319702148,20.199913677749635,18.354418319702148C20.408603677749632,18.139718319702148,20.525363677749635,17.85211831970215,20.525363677749635,17.552718319702148C20.525363677749635,17.552718319702148,20.525363677749635,6.258168319702149,20.525363677749635,6.258168319702149C20.525363677749635,5.286008319702148,19.737263677749635,4.497918319702149,18.765103677749632,4.497918319702149C18.765103677749632,4.497918319702149,18.765103677749632,4.497918319702149,18.765103677749632,4.497918319702149Z" fill-rule="evenodd" fill="#FFFFFF" fill-opacity="1"/></g><g style="mix-blend-mode:passthrough"><path d="M20.94099378768921,8.433531951904296C20.94099378768921,8.433531951904296,16.59057378768921,8.433531951904296,16.59057378768921,8.433531951904296C16.59057378768921,8.433531951904296,16.59057378768921,6.733531951904297,16.59057378768921,6.733531951904297C16.59057378768921,6.733531951904297,20.94099378768921,6.733531951904297,20.94099378768921,6.733531951904297C20.94099378768921,6.733531951904297,20.94099378768921,8.433531951904296,20.94099378768921,8.433531951904296C20.94099378768921,8.433531951904296,20.94099378768921,8.433531951904296,20.94099378768921,8.433531951904296Z" fill-rule="evenodd" fill="#FFFFFF" fill-opacity="1"/></g></g><g style="mix-blend-mode:passthrough"><path d="M12.304031610488892,18.815132713317873C12.304031610488892,18.34569071331787,12.684589610488892,17.96513271331787,13.154031610488891,17.96513271331787C13.154031610488891,17.96513271331787,20.15286161048889,17.96513271331787,20.15286161048889,17.96513271331787C20.622311610488893,17.96513271331787,21.002861610488893,18.34569071331787,21.002861610488893,18.815132713317873C21.002861610488893,19.28457271331787,20.622311610488893,19.66513271331787,20.15286161048889,19.66513271331787C20.15286161048889,19.66513271331787,13.154031610488891,19.66513271331787,13.154031610488891,19.66513271331787C12.684589610488892,19.66513271331787,12.304031610488892,19.28457271331787,12.304031610488892,18.815132713317873C12.304031610488892,18.815132713317873,12.304031610488892,18.815132713317873,12.304031610488892,18.815132713317873Z" fill-rule="evenodd" fill="#FFFFFF" fill-opacity="1"/></g></g></g></svg>