<svg xmlns="http://www.w3.org/2000/svg" xmlns:xlink="http://www.w3.org/1999/xlink" fill="none" version="1.1" width="24" height="24" viewBox="0 0 24 24"><defs><clipPath id="master_svg0_41_19474"><rect x="0" y="0" width="24" height="24" rx="0"/></clipPath></defs><g style="mix-blend-mode:passthrough"><g style="mix-blend-mode:passthrough" clip-path="url(#master_svg0_41_19474)"><g style="mix-blend-mode:passthrough" transform="matrix(1,0,0,-1,0,40.73534393310547)"><path d="M7.768910095367431,22.368121966552735C7.028740095367432,21.702581966552735,5.850000095367432,22.227881966552733,5.850000095367432,23.223261966552734C5.850000095367432,23.223261966552734,5.850000095367432,32.735371966552734,5.850000095367432,32.735371966552734C5.850000095367432,34.47507196655273,7.260300095367432,35.88537196655273,9.000000095367431,35.88537196655273C9.000000095367431,35.88537196655273,15.191300095367431,35.88537196655273,15.191300095367431,35.88537196655273C16.93100009536743,35.88537196655273,18.34130009536743,34.47507196655273,18.34130009536743,32.735371966552734C18.34130009536743,32.735371966552734,18.34130009536743,23.223261966552734,18.34130009536743,23.223261966552734C18.34130009536743,22.227881966552733,17.16260009536743,21.702581966552735,16.42240009536743,22.368121966552735C16.42240009536743,22.368121966552735,14.210500095367431,24.356981966552734,14.210500095367431,24.356981966552734C13.629810095367432,24.879091966552735,12.876530095367432,25.167951966552735,12.095650095367432,25.167951966552735C11.314770095367432,25.167951966552735,10.561490095367432,24.879091966552735,9.98082009536743,24.356981966552734C9.98082009536743,24.356981966552734,7.768910095367431,22.368121966552735,7.768910095367431,22.368121966552735C7.768910095367431,22.368121966552735,7.768910095367431,22.368121966552735,7.768910095367431,22.368121966552735ZM4.150000095367432,23.223261966552734C4.150000095367432,20.756443966552734,7.071230095367431,19.454626966552734,8.90557009536743,21.103990966552736C8.90557009536743,21.103990966552736,11.117480095367432,23.092851966552736,11.117480095367432,23.092851966552736C11.38605009536743,23.334341966552735,11.734470095367431,23.467951966552736,12.095650095367432,23.467951966552736C12.456840095367431,23.467951966552736,12.805250095367432,23.334341966552735,13.073830095367432,23.092851966552736C13.073830095367432,23.092851966552736,15.285700095367432,21.103990966552736,15.285700095367432,21.103990966552736C17.120100095367434,19.454626966552734,20.041300095367433,20.756444966552735,20.041300095367433,23.223261966552734C20.041300095367433,23.223261966552734,20.041300095367433,32.735371966552734,20.041300095367433,32.735371966552734C20.041300095367433,35.41397196655274,17.869900095367434,37.585371966552735,15.191300095367431,37.585371966552735C15.191300095367431,37.585371966552735,9.000000095367431,37.585371966552735,9.000000095367431,37.585371966552735C6.321420095367431,37.585371966552735,4.150000095367432,35.41397196655274,4.150000095367432,32.735371966552734C4.150000095367432,32.735371966552734,4.150000095367432,23.223261966552734,4.150000095367432,23.223261966552734C4.150000095367432,23.223261966552734,4.150000095367432,23.223261966552734,4.150000095367432,23.223261966552734Z" fill-rule="evenodd" fill="#000000" fill-opacity="1"/></g><g style="mix-blend-mode:passthrough" transform="matrix(1,0,0,-1,0,17.700000762939453)"><path d="M9.149999618530273,9.700000381469726C9.149999618530273,9.230558381469727,9.530557618530274,8.850000381469727,9.999999618530273,8.850000381469727C9.999999618530273,8.850000381469727,13.999999618530273,8.850000381469727,13.999999618530273,8.850000381469727C14.469439618530274,8.850000381469727,14.849999618530273,9.230558381469727,14.849999618530273,9.700000381469726C14.849999618530273,10.169440381469727,14.469439618530274,10.550000381469726,13.999999618530273,10.550000381469726C13.999999618530273,10.550000381469726,9.999999618530273,10.550000381469726,9.999999618530273,10.550000381469726C9.530557618530274,10.550000381469726,9.149999618530273,10.169440381469727,9.149999618530273,9.700000381469726C9.149999618530273,9.700000381469726,9.149999618530273,9.700000381469726,9.149999618530273,9.700000381469726Z" fill-rule="evenodd" fill="#000000" fill-opacity="1"/></g></g></g></svg>