<svg xmlns="http://www.w3.org/2000/svg" xmlns:xlink="http://www.w3.org/1999/xlink" fill="none" version="1.1" width="24" height="24" viewBox="0 0 24 24"><defs><clipPath id="master_svg0_41_19490"><rect x="0" y="0" width="24" height="24" rx="0"/></clipPath></defs><g style="mix-blend-mode:passthrough"><g style="mix-blend-mode:passthrough" clip-path="url(#master_svg0_41_19490)"><g style="mix-blend-mode:passthrough"><g style="mix-blend-mode:passthrough"><path d="M12.000000095367431,5.850000095367432C8.603450095367432,5.850000095367432,5.850000095367432,8.603450095367432,5.850000095367432,12.000000095367431C5.850000095367432,15.396600095367432,8.603450095367432,18.15000009536743,12.000000095367431,18.15000009536743C15.396600095367432,18.15000009536743,18.15000009536743,15.396600095367432,18.15000009536743,12.000000095367431C18.15000009536743,8.603450095367432,15.396600095367432,5.850000095367432,12.000000095367431,5.850000095367432C12.000000095367431,5.850000095367432,12.000000095367431,5.850000095367432,12.000000095367431,5.850000095367432ZM4.150000095367432,12.000000095367431C4.150000095367432,7.664560095367431,7.664560095367431,4.150000095367432,12.000000095367431,4.150000095367432C16.335400095367433,4.150000095367432,19.85000009536743,7.664560095367431,19.85000009536743,12.000000095367431C19.85000009536743,16.335400095367433,16.335400095367433,19.85000009536743,12.000000095367431,19.85000009536743C7.664560095367431,19.85000009536743,4.150000095367432,16.335400095367433,4.150000095367432,12.000000095367431C4.150000095367432,12.000000095367431,4.150000095367432,12.000000095367431,4.150000095367432,12.000000095367431Z" fill-rule="evenodd" fill="#000000" fill-opacity="1"/></g><g style="mix-blend-mode:passthrough" transform="matrix(0,1,-1,0,20,-5.199999809265137)"><path d="M12.599999904632568,8.000000095367431C12.599999904632568,7.668629095367431,12.868628904632569,7.400000095367432,13.199999904632568,7.400000095367432C13.199999904632568,7.400000095367432,17.19999990463257,7.400000095367432,17.19999990463257,7.400000095367432C17.53136990463257,7.400000095367432,17.799999904632568,7.668629095367431,17.799999904632568,8.000000095367431C17.799999904632568,8.331371095367432,17.53136990463257,8.600000095367431,17.19999990463257,8.600000095367431C17.19999990463257,8.600000095367431,13.199999904632568,8.600000095367431,13.199999904632568,8.600000095367431C12.868628904632569,8.600000095367431,12.599999904632568,8.331371095367432,12.599999904632568,8.000000095367431C12.599999904632568,8.000000095367431,12.599999904632568,8.000000095367431,12.599999904632568,8.000000095367431Z" fill-rule="evenodd" fill="#000000" fill-opacity="1"/></g><g style="mix-blend-mode:passthrough" transform="matrix(-1,0,0,-1,31.20000171661377,25.199999809265137)"><path d="M15.600000858306885,13.199999904632568C15.600000858306885,12.868628904632569,15.868629858306885,12.599999904632568,16.200000858306886,12.599999904632568C16.200000858306886,12.599999904632568,19.200000858306886,12.599999904632568,19.200000858306886,12.599999904632568C19.531370858306886,12.599999904632568,19.800000858306884,12.868628904632569,19.800000858306884,13.199999904632568C19.800000858306884,13.531370904632569,19.531370858306886,13.799999904632568,19.200000858306886,13.799999904632568C19.200000858306886,13.799999904632568,16.200000858306886,13.799999904632568,16.200000858306886,13.799999904632568C15.868629858306885,13.799999904632568,15.600000858306885,13.531370904632569,15.600000858306885,13.199999904632568C15.600000858306885,13.199999904632568,15.600000858306885,13.199999904632568,15.600000858306885,13.199999904632568Z" fill-rule="evenodd" fill="#000000" fill-opacity="1"/></g></g></g></g></svg>