<svg xmlns="http://www.w3.org/2000/svg" xmlns:xlink="http://www.w3.org/1999/xlink" fill="none" version="1.1" width="14" height="24" viewBox="21 9 14 24"><g style="mix-blend-mode:passthrough"><rect x="0" y="0" width="311" height="42" rx="21" fill="#F7F7F7" fill-opacity="1"/><g><path d="M32,18.66667L33.3333,18.66667C33.701499999999996,18.66667,34,18.965139999999998,34,19.33333L34,27.3333C34,27.7015,33.701499999999996,28,33.3333,28L22.666667,28C22.298477,28,22,27.7015,22,27.3333L22,19.33333C22,18.965139999999998,22.298477,18.66667,22.666667,18.66667L24,18.66667L24,18C24,15.79086,25.79086,14,28,14C30.209139999999998,14,32,15.79086,32,18L32,18.66667ZM30.66667,18.66667L30.66667,18C30.66667,16.52724,29.47276,15.33333,28,15.33333C26.52724,15.33333,25.33333,16.52724,25.33333,18L25.33333,18.66667L30.66667,18.66667ZM27.33333,22.66667L27.33333,24L28.66667,24L28.66667,22.66667L27.33333,22.66667ZM24.66667,22.66667L24.66667,24L26,24L26,22.66667L24.66667,22.66667ZM30,22.66667L30,24L31.33333,24L31.33333,22.66667L30,22.66667Z" fill="#E4E4E4" fill-opacity="1"/></g></g></svg>