<svg xmlns="http://www.w3.org/2000/svg" xmlns:xlink="http://www.w3.org/1999/xlink" fill="none" version="1.1" width="74" height="74" viewBox="20 14 74 74"><defs><clipPath id="master_svg0_218_852"><rect x="0" y="0" width="114" height="114.00000762939453" rx="5"/></clipPath></defs><g style="mix-blend-mode:passthrough" clip-path="url(#master_svg0_218_852)"><rect x="0" y="0" width="114" height="114.00000762939453" rx="5" fill="#7BC7C3" fill-opacity="1"/><g style="mix-blend-mode:passthrough"><g style="mix-blend-mode:passthrough"><path d="M37,15C35.895431,15,35,15.895431,35,17L35,60L56,60L56,15L37,15ZM51.153800000000004,36.5077L51.153800000000004,40.2923Q51.153800000000004,40.3719,51.1693,40.4499Q51.184799999999996,40.5279,51.2153,40.6014Q51.2457,40.6749,51.2899,40.741Q51.3341,40.8072,51.3904,40.8634Q51.446600000000004,40.9197,51.5128,40.963899999999995Q51.578900000000004,41.0081,51.6524,41.0385Q51.725899999999996,41.069,51.8039,41.0845Q51.8819,41.1,51.9615,41.1Q52.041,41.1,52.1191,41.0845Q52.1971,41.069,52.2706,41.0385Q52.3441,41.0081,52.4102,40.963899999999995Q52.4764,40.9197,52.5326,40.8634Q52.588899999999995,40.8072,52.6331,40.741Q52.6773,40.6749,52.7077,40.6014Q52.7382,40.5279,52.753699999999995,40.4499Q52.7692,40.3719,52.7692,40.2923L52.7692,36.5077Q52.7692,36.428200000000004,52.753699999999995,36.3501Q52.7382,36.272099999999995,52.7077,36.1986Q52.6773,36.1251,52.6331,36.059Q52.588899999999995,35.9928,52.5326,35.9366Q52.4764,35.8803,52.4102,35.8361Q52.3441,35.7919,52.2706,35.7615Q52.1971,35.7311,52.1191,35.7155Q52.041,35.7,51.9615,35.7Q51.8819,35.7,51.8039,35.7155Q51.725899999999996,35.7311,51.6524,35.7615Q51.578900000000004,35.7919,51.5128,35.8361Q51.446600000000004,35.8803,51.3904,35.9366Q51.3341,35.9928,51.2899,36.059Q51.2457,36.1251,51.2153,36.1986Q51.184799999999996,36.272099999999995,51.1693,36.3501Q51.153800000000004,36.428200000000004,51.153800000000004,36.5077Z" fill-rule="evenodd" fill="#FFFFFF" fill-opacity="1"/></g><g style="mix-blend-mode:passthrough" transform="matrix(-1,0,0,1,158,0)"><path d="M81,15C79.895431,15,79,15.895431,79,17L79,60L100,60L100,15L81,15ZM95.1538,36.5077L95.1538,40.2923Q95.1538,40.3719,95.16929999999999,40.4499Q95.1848,40.5279,95.2153,40.6014Q95.2457,40.6749,95.2899,40.741Q95.3341,40.8072,95.3904,40.8634Q95.4466,40.9197,95.5128,40.963899999999995Q95.5789,41.0081,95.6524,41.0385Q95.7259,41.069,95.8039,41.0845Q95.8819,41.1,95.9615,41.1Q96.041,41.1,96.1191,41.0845Q96.1971,41.069,96.2706,41.0385Q96.3441,41.0081,96.4102,40.963899999999995Q96.4764,40.9197,96.5326,40.8634Q96.5889,40.8072,96.6331,40.741Q96.6773,40.6749,96.7077,40.6014Q96.7382,40.5279,96.7537,40.4499Q96.7692,40.3719,96.7692,40.2923L96.7692,36.5077Q96.7692,36.428200000000004,96.7537,36.3501Q96.7382,36.272099999999995,96.7077,36.1986Q96.6773,36.1251,96.6331,36.059Q96.5889,35.9928,96.5326,35.9366Q96.4764,35.8803,96.4102,35.8361Q96.3441,35.7919,96.2706,35.7615Q96.1971,35.7311,96.1191,35.7155Q96.041,35.7,95.9615,35.7Q95.8819,35.7,95.8039,35.7155Q95.7259,35.7311,95.6524,35.7615Q95.5789,35.7919,95.5128,35.8361Q95.4466,35.8803,95.3904,35.9366Q95.3341,35.9928,95.2899,36.059Q95.2457,36.1251,95.2153,36.1986Q95.1848,36.272099999999995,95.16929999999999,36.3501Q95.1538,36.428200000000004,95.1538,36.5077Z" fill-rule="evenodd" fill="#FFFFFF" fill-opacity="1"/></g><g style="mix-blend-mode:passthrough"><path d="M79,62L35,62L35,81C35,82.1046,35.895431,83,37,83L77,83C78.1046,83,79,82.1046,79,81L79,62ZM62.3762,70.92655Q62.444900000000004,70.89864,62.5088,70.86088Q62.5727,70.82313,62.6303,70.77635000000001Q62.6879,70.72958,62.738,70.67482Q62.7881,70.62005,62.829499999999996,70.5585Q62.870999999999995,70.49694,62.9029,70.42994Q62.934799999999996,70.36294,62.9564,70.29196999999999Q62.9781,70.221,62.989000000000004,70.1476Q63,70.07421,63,70Q63,69.90151,62.9808,69.80491Q62.961600000000004,69.70831,62.9239,69.61732Q62.8862,69.52632,62.8315,69.44443Q62.776700000000005,69.36254,62.7071,69.29289Q62.6375,69.22325000000001,62.5556,69.16853Q62.4737,69.11381,62.3827,69.07612Q62.2917,69.03843,62.1951,69.01921Q62.0985,69,62,69Q61.8048,69,61.6238,69.07345L61.623599999999996,69.07354Q61.622,69.07419,61.620400000000004,69.07485Q59.3398,70,57,70Q54.6584,70,52.3762,69.07345Q52.1952,69,52,69Q51.9015,69,51.8049,69.01922Q51.7083,69.03843,51.6173,69.07612Q51.5263,69.11381,51.4444,69.16853Q51.3625,69.22325000000001,51.2929,69.29289Q51.2232,69.36254,51.1685,69.44443Q51.1138,69.52632,51.0761,69.61732Q51.038399999999996,69.70831,51.0192,69.80491Q51,69.90151,51,70Q51,70.07421,51.010999999999996,70.1476Q51.0219,70.221,51.0436,70.29196999999999Q51.065200000000004,70.36295,51.0971,70.42994Q51.129000000000005,70.49694,51.170500000000004,70.5585Q51.2119,70.62005,51.262,70.67482Q51.3121,70.72958,51.3697,70.77635000000001Q51.4273,70.82313,51.4912,70.86088Q51.555099999999996,70.89864,51.6238,70.92656L51.623999999999995,70.92661L51.6258,70.92734Q54.2689,72,57,72Q59.7321,72,62.3762,70.92655Z" fill-rule="evenodd" fill="#FFFFFF" fill-opacity="1"/></g><g style="mix-blend-mode:passthrough"><rect x="45" y="82" width="2" height="5" rx="1" fill="#FFFFFF" fill-opacity="1"/></g><g style="mix-blend-mode:passthrough"><rect x="67" y="82" width="2" height="5" rx="1" fill="#FFFFFF" fill-opacity="1"/></g></g></g></svg>