<svg xmlns="http://www.w3.org/2000/svg" xmlns:xlink="http://www.w3.org/1999/xlink" fill="none" version="1.1" width="44" height="44" viewBox="0 0 44 44"><g style="mix-blend-mode:passthrough"><g style="mix-blend-mode:passthrough"><path d="M22.49892333984375,3.5C12.74280333984375,3.5,4.83392333984375,11.40888,4.83392333984375,21.165C4.83392333984375,21.165,4.83392333984375,38.83,4.83392333984375,38.83C4.83392333984375,38.83,22.49892333984375,38.83,22.49892333984375,38.83C32.25512333984375,38.83,40.16392333984375,30.9212,40.16392333984375,21.165C40.16392333984375,11.40888,32.25512333984375,3.5,22.49892333984375,3.5C22.49892333984375,3.5,22.49892333984375,3.5,22.49892333984375,3.5ZM14.47024333984375,24.1759C16.13312333984375,24.1759,17.481123339843748,22.8279,17.481123339843748,21.165C17.481123339843748,19.5022,16.13312333984375,18.1542,14.47024333984375,18.1542C12.807393339843749,18.1542,11.45938333984375,19.5022,11.45938333984375,21.165C11.45938333984375,22.8279,12.807393339843749,24.1759,14.47024333984375,24.1759C14.47024333984375,24.1759,14.47024333984375,24.1759,14.47024333984375,24.1759ZM25.50962333984375,21.165C25.50962333984375,22.8279,24.16162333984375,24.1759,22.49872333984375,24.1759C20.83582333984375,24.1759,19.48782333984375,22.8279,19.48782333984375,21.165C19.48782333984375,19.5022,20.83582333984375,18.1542,22.49872333984375,18.1542C24.16162333984375,18.1542,25.50962333984375,19.5022,25.50962333984375,21.165C25.50962333984375,21.165,25.50962333984375,21.165,25.50962333984375,21.165ZM30.52872333984375,24.1759C32.191523339843755,24.1759,33.539523339843754,22.8279,33.539523339843754,21.165C33.539523339843754,19.5022,32.191523339843755,18.1542,30.52872333984375,18.1542C28.86582333984375,18.1542,27.51772333984375,19.5022,27.51772333984375,21.165C27.51772333984375,22.8279,28.86582333984375,24.1759,30.52872333984375,24.1759C30.52872333984375,24.1759,30.52872333984375,24.1759,30.52872333984375,24.1759Z" fill-rule="evenodd" fill="#FFFFFF" fill-opacity="1"/></g></g></svg>