<svg xmlns="http://www.w3.org/2000/svg" xmlns:xlink="http://www.w3.org/1999/xlink" fill="none" version="1.1" width="36" height="36" viewBox="7 9 36 36"><defs><clipPath id="master_svg0_41_24812"><rect x="0" y="0" width="51" height="73" rx="0"/></clipPath><clipPath id="master_svg1_110_2478"><rect x="4.5" y="5.69598388671875" width="42" height="42" rx="0"/></clipPath><linearGradient x1="0.5" y1="0" x2="0.5" y2="1" id="master_svg2_12_1920"><stop offset="0%" stop-color="#0DC4B6" stop-opacity="1"/><stop offset="100%" stop-color="#1AD1A9" stop-opacity="0.7400000095367432"/></linearGradient></defs><g style="mix-blend-mode:passthrough" clip-path="url(#master_svg0_41_24812)"><g style="mix-blend-mode:passthrough" clip-path="url(#master_svg1_110_2478)"><g style="mix-blend-mode:passthrough"><path d="M10.2625732421875,19.29453609375C10.2625732421875,15.93330609375,12.9873832421875,13.20849609375,16.3486132421875,13.20849609375L28.9949732421875,13.20849609375C32.356173242187495,13.20849609375,35.0809732421875,15.93330609375,35.0809732421875,19.29453609375L35.0809732421875,38.501196093749996L35.318073242187495,38.501196093749996C37.1951732421875,38.501196093749996,38.7167732421875,36.97949609375,38.7167732421875,35.10249609375L38.7167732421875,24.036896093750002C38.7167732421875,23.29479609375,39.3184732421875,22.69324609375,40.0604732421875,22.69324609375C40.8024732421875,22.69324609375,41.4041732421875,23.29479609375,41.4041732421875,24.036896093750002L41.4041732421875,35.10249609375C41.4041732421875,38.46369609375,38.679373242187495,41.188496093750004,35.318073242187495,41.188496093750004L35.0809732421875,41.188496093750004L16.3486132421875,41.188496093750004C12.9873832421875,41.188496093750004,10.2625732421875,38.46369609375,10.2625732421875,35.10249609375L10.2625732421875,19.29453609375ZM16.3485532421875,20.87534609375C16.3485532421875,20.00230609375,17.0563032421875,19.29455609375,17.9293432421875,19.29455609375L27.4140732421875,19.29455609375C28.2871732421875,19.29455609375,28.9948732421875,20.00230609375,28.9948732421875,20.87534609375L28.9948732421875,24.036896093750002C28.9948732421875,24.90999609375,28.2871732421875,25.61769609375,27.4140732421875,25.61769609375L17.9293432421875,25.61769609375C17.0563032421875,25.61769609375,16.3485532421875,24.90999609375,16.3485532421875,24.036896093750002L16.3485532421875,20.87534609375ZM15.3210332421875,30.36009609375C15.3210332421875,29.79259609375,15.7810832421875,29.33259609375,16.3485532421875,29.33259609375L24.2524732421875,29.33259609375C24.8199732421875,29.33259609375,25.279973242187502,29.79259609375,25.279973242187502,30.36009609375C25.279973242187502,30.92759609375,24.8199732421875,31.38759609375,24.2524732421875,31.38759609375L16.3485532421875,31.38759609375C15.7810832421875,31.38759609375,15.3210332421875,30.92759609375,15.3210332421875,30.36009609375ZM16.3485532421875,34.07499609375C15.7810832421875,34.07499609375,15.3210332421875,34.534996093749996,15.3210332421875,35.10249609375C15.3210332421875,35.66999609375,15.7810832421875,36.12999609375,16.3485532421875,36.12999609375L28.9948732421875,36.12999609375C29.5623732421875,36.12999609375,30.0223732421875,35.66999609375,30.0223732421875,35.10249609375C30.0223732421875,34.534996093749996,29.5623732421875,34.07499609375,28.9948732421875,34.07499609375L16.3485532421875,34.07499609375Z" fill-rule="evenodd" fill="url(#master_svg2_12_1920)" fill-opacity="1"/></g></g></g></svg>