<svg xmlns="http://www.w3.org/2000/svg" xmlns:xlink="http://www.w3.org/1999/xlink" fill="none" version="1.1" width="14" height="24" viewBox="19.5 10 14 24"><g style="mix-blend-mode:passthrough"><rect x="0" y="0" width="311" height="42" rx="21" fill="#F7F7F7" fill-opacity="1"/><g style="mix-blend-mode:passthrough"><path d="M21.916667,12C21.410406,12,21,12.386663,21,12.863636L21,25.818199999999997L32,25.818199999999997L32,12.863636C32,12.386663,31.5896,12,31.0833,12L21.916667,12ZM25.125,12.863636C24.87187,12.863636,24.66667,13.05697,24.66667,13.29545C24.66667,13.53394,24.87187,13.72727,25.125,13.72727L27.875,13.72727C28.12813,13.72727,28.33333,13.53394,28.33333,13.29545C28.33333,13.05697,28.12813,12.863636,27.875,12.863636L25.125,12.863636ZM32,27.5455L21,27.5455L21,30.1364C21,30.6133,21.410406,31,21.916667,31L31.0833,31C31.5896,31,32,30.6133,32,30.1364L32,27.5455ZM27.41667,29.2727C27.41667,29.7497,27.00626,30.1364,26.5,30.1364C25.99374,30.1364,25.58333,29.7497,25.58333,29.2727C25.58333,28.7958,25.99374,28.4091,26.5,28.4091C27.00626,28.4091,27.41667,28.7958,27.41667,29.2727Z" fill-rule="evenodd" fill="#E4E4E4" fill-opacity="1"/></g></g></svg>