<svg xmlns="http://www.w3.org/2000/svg" xmlns:xlink="http://www.w3.org/1999/xlink" fill="none" version="1.1" width="44" height="44" viewBox="0 0 44 44"><g style="mix-blend-mode:passthrough"><g style="mix-blend-mode:passthrough"><path d="M21.498648681640624,41.5375C30.012148681640625,41.5375,36.91364868164062,26.9285,36.91364868164062,18.415C36.91364868164062,9.90154,30.012148681640625,3,21.498648681640624,3C12.985188681640626,3,6.083648681640625,9.90154,6.083648681640625,18.415C6.083648681640625,26.9285,12.985188681640626,41.5375,21.498648681640624,41.5375C21.498648681640624,41.5375,21.498648681640624,41.5375,21.498648681640624,41.5375ZM21.498648681640624,25.0214C25.147248681640626,25.0214,28.105048681640625,22.0636,28.105048681640625,18.415C28.105048681640625,14.7664,25.147248681640626,11.80857,21.498648681640624,11.80857C17.850048681640626,11.80857,14.892218681640625,14.7664,14.892218681640625,18.415C14.892218681640625,22.0636,17.850048681640626,25.0214,21.498648681640624,25.0214C21.498648681640624,25.0214,21.498648681640624,25.0214,21.498648681640624,25.0214Z" fill-rule="evenodd" fill="#FFFFFF" fill-opacity="1"/></g></g></svg>