<svg xmlns="http://www.w3.org/2000/svg" xmlns:xlink="http://www.w3.org/1999/xlink" fill="none" version="1.1" width="32" height="32" viewBox="-4 -4 32 32"><defs><clipPath id="master_svg0_171_895"><rect x="0" y="0" width="24" height="24" rx="0"/></clipPath></defs><g style="mix-blend-mode:passthrough" clip-path="url(#master_svg0_171_895)"><g style="mix-blend-mode:passthrough"><path d="M9.175734708862304,15.849999618530273C8.510004708862304,15.849999618530273,7.861394708862305,16.060919618530274,7.322994708862305,16.452479618530273C7.322994708862305,16.452479618530273,6.473974708862304,17.069949618530273,6.473974708862304,17.069949618530273C5.573244708862305,17.72502961853027,6.036614708862305,19.149999618530273,7.150364708862305,19.149999618530273C7.150364708862305,19.149999618530273,16.849604708862305,19.149999618530273,16.849604708862305,19.149999618530273C17.963404708862306,19.149999618530273,18.426804708862306,17.72502961853027,17.526004708862303,17.069949618530273C17.526004708862303,17.069949618530273,16.677004708862306,16.452479618530273,16.677004708862306,16.452479618530273C16.138604708862303,16.060919618530274,15.490004708862305,15.849999618530273,14.824304708862305,15.849999618530273C14.824304708862305,15.849999618530273,9.175734708862304,15.849999618530273,9.175734708862304,15.849999618530273C9.175734708862304,15.849999618530273,9.175734708862304,15.849999618530273,9.175734708862304,15.849999618530273ZM6.323104708862305,15.077629618530274C7.152064708862305,14.474747618530273,8.150724708862304,14.149999618530273,9.175734708862304,14.149999618530273C9.175734708862304,14.149999618530273,14.824304708862305,14.149999618530273,14.824304708862305,14.149999618530273C15.849304708862304,14.149999618530273,16.847904708862306,14.474746618530274,17.676904708862303,15.077629618530274C17.676904708862303,15.077629618530274,18.525904708862306,15.695099618530273,18.525904708862306,15.695099618530273C20.758204708862305,17.318549618530273,19.609804708862306,20.849999618530273,16.849604708862305,20.849999618530273C16.849604708862305,20.849999618530273,7.150364708862305,20.849999618530273,7.150364708862305,20.849999618530273C4.390197808862305,20.849999618530273,3.2418347088623047,17.318549618530273,5.474084708862304,15.695099618530273C5.474084708862304,15.695099618530273,6.323104708862305,15.077629618530274,6.323104708862305,15.077629618530274C6.323104708862305,15.077629618530274,6.323104708862305,15.077629618530274,6.323104708862305,15.077629618530274Z" fill-rule="evenodd" fill="#000000" fill-opacity="1"/></g><g style="mix-blend-mode:passthrough"><path d="M12.000000095367431,4.850000095367432C10.260300095367432,4.850000095367432,8.850000095367431,6.260300095367432,8.850000095367431,8.000000095367431C8.850000095367431,9.739700095367432,10.260300095367432,11.150000095367432,12.000000095367431,11.150000095367432C13.739700095367432,11.150000095367432,15.150000095367432,9.739700095367432,15.150000095367432,8.000000095367431C15.150000095367432,6.260300095367432,13.739700095367432,4.850000095367432,12.000000095367431,4.850000095367432C12.000000095367431,4.850000095367432,12.000000095367431,4.850000095367432,12.000000095367431,4.850000095367432ZM7.150000095367432,8.000000095367431C7.150000095367432,5.321420095367431,9.321420095367431,3.1500000953674316,12.000000095367431,3.1500000953674316C14.678580095367431,3.1500000953674316,16.85000009536743,5.321420095367431,16.85000009536743,8.000000095367431C16.85000009536743,10.678580095367431,14.678580095367431,12.850000095367431,12.000000095367431,12.850000095367431C9.321420095367431,12.850000095367431,7.150000095367432,10.678580095367431,7.150000095367432,8.000000095367431C7.150000095367432,8.000000095367431,7.150000095367432,8.000000095367431,7.150000095367432,8.000000095367431Z" fill-rule="evenodd" fill="#000000" fill-opacity="1"/></g></g></svg>