<svg xmlns="http://www.w3.org/2000/svg" xmlns:xlink="http://www.w3.org/1999/xlink" fill="none" version="1.1" width="32" height="32" viewBox="-4 -4 32 32"><defs><clipPath id="master_svg0_195_852"><rect x="0" y="0" width="24" height="24" rx="0"/></clipPath></defs><g style="mix-blend-mode:passthrough" clip-path="url(#master_svg0_195_852)"><g style="mix-blend-mode:passthrough"><g style="mix-blend-mode:passthrough"><path d="M9.44040284172058,5.000000095367431C9.44040284172058,3.9782720953674318,10.268682841720581,3.1500000953674316,11.290402841720582,3.1500000953674316C11.290402841720582,3.1500000953674316,12.925532841720582,3.1500000953674316,12.925532841720582,3.1500000953674316C13.94724284172058,3.1500000953674316,14.775542841720581,3.9782740953674316,14.775542841720581,5.000000095367431C14.775542841720581,5.000000095367431,14.775542841720581,5.647350095367432,14.775542841720581,5.647350095367432C14.775542841720581,6.050840095367432,14.99304284172058,6.423010095367432,15.344542841720582,6.621040095367432C15.68514284172058,6.812860095367432,16.10104284172058,6.812860095367432,16.441542841720583,6.621040095367432C16.441542841720583,6.621040095367432,17.18094284172058,6.2045500953674315,17.18094284172058,6.2045500953674315C18.065042841720583,5.706540095367432,19.193442841720582,6.008830095367432,19.710142841720582,6.8820800953674315C19.710142841720582,6.8820800953674315,20.50924284172058,8.232450095367431,20.50924284172058,8.232450095367431C21.033142841720583,9.117860095367432,20.72924284172058,10.252370095367432,19.83284284172058,10.757310095367432C19.83284284172058,10.757310095367432,18.86244284172058,11.303970095367431,18.86244284172058,11.303970095367431C18.61824284172058,11.441530095367431,18.46714284172058,11.70004009536743,18.46714284172058,11.980310095367432C18.46714284172058,12.260580095367432,18.61824284172058,12.519090095367432,18.86244284172058,12.656640095367433C18.86244284172058,12.656640095367433,19.83264284172058,13.203200095367432,19.83264284172058,13.203200095367432C20.72904284172058,13.708100095367431,21.03294284172058,14.842600095367432,20.509042841720582,15.728000095367431C20.509042841720582,15.728000095367431,19.70994284172058,17.07840009536743,19.70994284172058,17.07840009536743C19.193242841720583,17.951700095367432,18.06474284172058,18.25390009536743,17.18074284172058,17.75590009536743C17.18074284172058,17.75590009536743,16.441542841720583,17.33960009536743,16.441542841720583,17.33960009536743C16.10104284172058,17.147700095367433,15.68504284172058,17.147700095367433,15.34444284172058,17.33960009536743C14.99284284172058,17.53760009536743,14.775342841720581,17.90980009536743,14.775342841720581,18.31340009536743C14.775342841720581,18.31340009536743,14.775342841720581,18.96050009536743,14.775342841720581,18.96050009536743C14.775342841720581,19.98230009536743,13.947042841720581,20.81050009536743,12.925312841720581,20.81050009536743C12.925312841720581,20.81050009536743,11.29019284172058,20.81050009536743,11.29019284172058,20.81050009536743C10.26846284172058,20.81050009536743,9.440192841720581,19.98230009536743,9.440192841720581,18.96050009536743C9.440192841720581,18.96050009536743,9.440192841720581,18.40060009536743,9.440192841720581,18.40060009536743C9.440192841720581,17.94300009536743,9.193532841720582,17.521000095367434,8.79485284172058,17.29640009536743C8.40868284172058,17.078800095367434,7.936942841720581,17.078800095367434,7.550782841720581,17.29640009536743C7.550782841720581,17.29640009536743,6.734942841720581,17.75590009536743,6.734942841720581,17.75590009536743C5.850882841720582,18.25400009536743,4.722432841720581,17.951700095367432,4.205712841720581,17.07840009536743C4.205712841720581,17.07840009536743,3.406652841720581,15.728000095367431,3.406652841720581,15.728000095367431C2.882725841720581,14.842600095367432,3.186637141720581,13.708100095367431,4.083011841720581,13.203200095367432C4.083011841720581,13.203200095367432,5.50092284172058,12.404450095367432,5.50092284172058,12.404450095367432C5.654052841720581,12.318180095367431,5.748802841720581,12.156070095367431,5.748802841720581,11.980310095367432C5.748802841720581,11.804550095367432,5.654052841720581,11.642440095367432,5.50092284172058,11.556180095367433C5.50092284172058,11.556180095367433,4.082802841720581,10.757320095367431,4.082802841720581,10.757320095367431C3.186426841720581,10.252370095367432,2.882518841720581,9.117870095367431,3.406444841720581,8.232460095367433C3.406444841720581,8.232460095367433,4.205502841720581,6.8820800953674315,4.205502841720581,6.8820800953674315C4.722222841720582,6.0088400953674315,5.850682841720581,5.706550095367431,6.7347328417205805,6.204560095367432C6.7347328417205805,6.204560095367432,7.550552841720581,6.664130095367431,7.550552841720581,6.664130095367431C7.936802841720581,6.881710095367431,8.40866284172058,6.881710095367431,8.794912841720581,6.664130095367431C9.19369284172058,6.439490095367431,9.44040284172058,6.017330095367432,9.44040284172058,5.559640095367431C9.44040284172058,5.559640095367431,9.44040284172058,5.000000095367431,9.44040284172058,5.000000095367431C9.44040284172058,5.000000095367431,9.44040284172058,5.000000095367431,9.44040284172058,5.000000095367431ZM11.290402841720582,4.850000095367432C11.20756284172058,4.850000095367432,11.140402841720581,4.917160095367432,11.140402841720581,5.000000095367431C11.140402841720581,5.000000095367431,11.140402841720581,5.559640095367431,11.140402841720581,5.559640095367431C11.140402841720581,6.631120095367432,10.562832841720581,7.619400095367432,9.629282841720581,8.145290095367432C8.725052841720581,8.654660095367433,7.620422841720581,8.654660095367433,6.716192841720581,8.145290095367432C6.716192841720581,8.145290095367432,5.900362841720581,7.685720095367432,5.900362841720581,7.685720095367432C5.822032841720581,7.641590095367432,5.714332841720581,7.670450095367432,5.668552841720581,7.747810095367432C5.668552841720581,7.747810095367432,4.8694928417205805,9.098190095367432,4.8694928417205805,9.098190095367432C4.830912841720581,9.163380095367431,4.851162841720581,9.238980095367431,4.917172841720581,9.27616009536743C4.917172841720581,9.27616009536743,6.335292841720581,10.075020095367432,6.335292841720581,10.075020095367432C7.023192841720581,10.46253009536743,7.448802841720581,11.190760095367432,7.448802841720581,11.980310095367432C7.448802841720581,12.76986009536743,7.023192841720581,13.498100095367432,6.335292841720581,13.885600095367431C6.335292841720581,13.885600095367431,4.917382841720581,14.684300095367432,4.917382841720581,14.684300095367432C4.851372841720581,14.721500095367432,4.831122841720581,14.797100095367432,4.869702841720581,14.862300095367432C4.869702841720581,14.862300095367432,5.668752841720581,16.21270009536743,5.668752841720581,16.21270009536743C5.714542841720581,16.290100095367432,5.8222428417205805,16.318900095367432,5.900572841720582,16.274800095367432C5.900572841720582,16.274800095367432,6.716412841720581,15.815200095367432,6.716412841720581,15.815200095367432C7.620552841720581,15.305900095367432,8.725072841720582,15.305900095367432,9.62921284172058,15.815200095367432C10.56267284172058,16.341000095367434,11.14019284172058,17.329200095367433,11.14019284172058,18.40060009536743C11.14019284172058,18.40060009536743,11.14019284172058,18.96050009536743,11.14019284172058,18.96050009536743C11.14019284172058,19.04340009536743,11.207352841720581,19.11050009536743,11.29019284172058,19.11050009536743C11.29019284172058,19.11050009536743,12.925312841720581,19.11050009536743,12.925312841720581,19.11050009536743C13.00815284172058,19.11050009536743,13.075312841720582,19.04340009536743,13.075312841720582,18.96050009536743C13.075312841720582,18.96050009536743,13.075312841720582,18.31340009536743,13.075312841720582,18.31340009536743C13.075312841720582,17.296100095367432,13.623742841720581,16.357700095367434,14.510042841720582,15.858400095367431C15.36864284172058,15.374800095367432,16.41744284172058,15.374800095367432,17.275942841720582,15.858400095367431C17.275942841720582,15.858400095367431,18.01504284172058,16.274800095367432,18.01504284172058,16.274800095367432C18.09344284172058,16.318900095367432,18.201142841720582,16.290100095367432,18.246942841720582,16.21270009536743C18.246942841720582,16.21270009536743,19.04594284172058,14.862300095367432,19.04594284172058,14.862300095367432C19.08454284172058,14.797100095367432,19.06424284172058,14.721500095367432,18.998242841720582,14.684300095367432C18.998242841720582,14.684300095367432,18.02804284172058,14.137800095367432,18.02804284172058,14.137800095367432C17.24914284172058,13.699000095367431,16.76714284172058,12.874360095367432,16.76714284172058,11.980310095367432C16.76714284172058,11.086250095367433,17.24914284172058,10.261620095367432,18.02804284172058,9.822810095367432C18.02804284172058,9.822810095367432,18.99854284172058,9.27615009536743,18.99854284172058,9.27615009536743C19.06454284172058,9.238970095367431,19.084742841720583,9.163370095367432,19.04614284172058,9.098180095367432C19.04614284172058,9.098180095367432,18.24714284172058,7.747810095367432,18.24714284172058,7.747810095367432C18.20134284172058,7.670440095367431,18.09364284172058,7.6415800953674315,18.01534284172058,7.6857100953674315C18.01534284172058,7.6857100953674315,17.275942841720582,8.102200095367433,17.275942841720582,8.102200095367433C16.41744284172058,8.585810095367432,15.36874284172058,8.585810095367432,14.510242841720581,8.102200095367433C13.623842841720581,7.602920095367431,13.07553284172058,6.664630095367432,13.07553284172058,5.647350095367432C13.07553284172058,5.647350095367432,13.07553284172058,5.000000095367431,13.07553284172058,5.000000095367431C13.07553284172058,4.917160095367432,13.00837284172058,4.850000095367432,12.925532841720582,4.850000095367432C12.925532841720582,4.850000095367432,11.290402841720582,4.850000095367432,11.290402841720582,4.850000095367432C11.290402841720582,4.850000095367432,11.290402841720582,4.850000095367432,11.290402841720582,4.850000095367432Z" fill-rule="evenodd" fill="#000000" fill-opacity="1"/></g><g style="mix-blend-mode:passthrough"><path d="M11.938027650680542,12.940344217224121C12.468267650680541,12.940344217224121,12.898107650680542,12.51050421722412,12.898107650680542,11.980264217224121C12.898107650680542,11.45002421722412,12.468267650680541,11.02017421722412,11.938027650680542,11.02017421722412C11.407787650680541,11.02017421722412,10.977937650680541,11.45002421722412,10.977937650680541,11.980264217224121C10.977937650680541,12.51050421722412,11.407787650680541,12.940344217224121,11.938027650680542,12.940344217224121C11.938027650680542,12.940344217224121,11.938027650680542,12.940344217224121,11.938027650680542,12.940344217224121ZM11.938027650680542,14.640344217224122C13.407147650680542,14.640344217224122,14.598107650680543,13.449384217224122,14.598107650680543,11.980264217224121C14.598107650680543,10.511134217224122,13.407147650680542,9.320174217224121,11.938027650680542,9.320174217224121C10.468897650680542,9.320174217224121,9.277937650680542,10.511134217224122,9.277937650680542,11.980264217224121C9.277937650680542,13.449384217224122,10.468897650680542,14.640344217224122,11.938027650680542,14.640344217224122C11.938027650680542,14.640344217224122,11.938027650680542,14.640344217224122,11.938027650680542,14.640344217224122Z" fill-rule="evenodd" fill="#000000" fill-opacity="1"/></g></g></g></svg>