<svg xmlns="http://www.w3.org/2000/svg" xmlns:xlink="http://www.w3.org/1999/xlink" fill="none" version="1.1" width="32" height="32" viewBox="-1 -1 32 32"><defs><clipPath id="master_svg0_60_46277"><rect x="0" y="0" width="30" height="30" rx="15"/></clipPath></defs><g style="mix-blend-mode:passthrough" clip-path="url(#master_svg0_60_46277)"><rect x="0" y="0" width="30" height="30" rx="15" fill="#F3F3F3" fill-opacity="1"/><g style="mix-blend-mode:passthrough"><g style="mix-blend-mode:passthrough"><path d="M9.51712115078125,11.45746419921875C9.36223105078125,10.39535119921875,10.18572405078125,9.44305419921875,11.25906205078125,9.44305419921875C11.25906205078125,9.44305419921875,18.14104205078125,9.44305419921875,18.14104205078125,9.44305419921875C19.214342050781248,9.44305419921875,20.03785205078125,10.39535119921875,19.883052050781252,11.45745419921875C19.883052050781252,11.45745419921875,18.570842050781252,20.45485419921875,18.570842050781252,20.45485419921875C18.44471205078125,21.31985419921875,17.70301205078125,21.96115419921875,16.82891205078125,21.96115419921875C16.82891205078125,21.96115419921875,12.57118205078125,21.96115419921875,12.57118205078125,21.96115419921875C11.69708205078125,21.96115419921875,10.95538205078125,21.31985419921875,10.82924205078125,20.45485419921875C10.82924205078125,20.45485419921875,9.51712115078125,11.45746419921875,9.51712115078125,11.45746419921875C9.51712115078125,11.45746419921875,9.51712115078125,11.45746419921875,9.51712115078125,11.45746419921875Z" fill="#FF0A0A" fill-opacity="0.11999999731779099"/></g><g style="mix-blend-mode:passthrough"><path d="M8.77668486484375,11.565649394531249C8.55596696484375,10.05214939453125,9.72944196484375,8.69512939453125,11.25895896484375,8.69512939453125C11.25895896484375,8.69512939453125,18.14096896484375,8.69512939453125,18.14096896484375,8.69512939453125C19.67043896484375,8.69512939453125,20.84393896484375,10.05214939453125,20.62313896484375,11.565649394531249C20.62313896484375,11.565649394531249,19.31103896484375,20.563129394531252,19.31103896484375,20.563129394531252C19.13133896484375,21.79562939453125,18.07441896484375,22.709629394531248,16.82879896484375,22.709629394531248C16.82879896484375,22.709629394531248,12.57107896484375,22.709629394531248,12.57107896484375,22.709629394531248C11.32548896484375,22.709629394531248,10.26855896484375,21.79562939453125,10.08880896484375,20.563129394531252C10.08880896484375,20.563129394531252,8.77668486484375,11.565649394531249,8.77668486484375,11.565649394531249C8.77668486484375,11.565649394531249,8.77668486484375,11.565649394531249,8.77668486484375,11.565649394531249ZM11.25895896484375,10.19143939453125C10.64177896484375,10.19143939453125,10.16827896484375,10.73900939453125,10.257328964843751,11.349719394531249C10.257328964843751,11.349719394531249,11.56945896484375,20.34712939453125,11.56945896484375,20.34712939453125C11.64198896484375,20.84442939453125,12.068468964843749,21.21322939453125,12.57107896484375,21.21322939453125C12.57107896484375,21.21322939453125,16.82879896484375,21.21322939453125,16.82879896484375,21.21322939453125C17.33140896484375,21.21322939453125,17.75790896484375,20.84442939453125,17.83043896484375,20.34712939453125C17.83043896484375,20.34712939453125,19.14253896484375,11.349719394531249,19.14253896484375,11.349719394531249C19.23163896484375,10.73900939453125,18.75803896484375,10.19143939453125,18.14096896484375,10.19143939453125C18.14096896484375,10.19143939453125,11.25895896484375,10.19143939453125,11.25895896484375,10.19143939453125C11.25895896484375,10.19143939453125,11.25895896484375,10.19143939453125,11.25895896484375,10.19143939453125Z" fill-rule="evenodd" fill="#FF0000" fill-opacity="1"/></g><g style="mix-blend-mode:passthrough"><path d="M12.3870849609375,6.9980339296875C12.3870849609375,6.5848389296875,12.7220459609375,6.2498779296875,13.1352409609375,6.2498779296875C13.1352409609375,6.2498779296875,16.2647849609375,6.2498779296875,16.2647849609375,6.2498779296875C16.6779749609375,6.2498779296875,17.0129449609375,6.5848389296875,17.0129449609375,6.9980339296875C17.0129449609375,7.4112279296875005,16.6779749609375,7.7461879296875,16.2647849609375,7.7461879296875C16.2647849609375,7.7461879296875,13.1352409609375,7.7461879296875,13.1352409609375,7.7461879296875C12.7220459609375,7.7461879296875,12.3870849609375,7.4112279296875005,12.3870849609375,6.9980339296875C12.3870849609375,6.9980339296875,12.3870849609375,6.9980339296875,12.3870849609375,6.9980339296875Z" fill-rule="evenodd" fill="#FF0000" fill-opacity="1"/></g><g style="mix-blend-mode:passthrough" transform="matrix(0.1414213478565216,0.9899495244026184,-0.9899495244026184,0.1414213478565216,24.39465037449372,-1.0470676838576765)"><path d="M12.80096435546875,14.06821009765625C12.80096435546875,13.77654309765625,13.03740735546875,13.54010009765625,13.32907435546875,13.54010009765625C13.32907435546875,13.54010009765625,18.86137435546875,13.54010009765625,18.86137435546875,13.54010009765625C19.15303435546875,13.54010009765625,19.38948435546875,13.77654309765625,19.38948435546875,14.06821009765625C19.38948435546875,14.35987709765625,19.15303435546875,14.59632009765625,18.86137435546875,14.59632009765625C18.86137435546875,14.59632009765625,13.32907435546875,14.59632009765625,13.32907435546875,14.59632009765625C13.03740735546875,14.59632009765625,12.80096435546875,14.35987709765625,12.80096435546875,14.06821009765625C12.80096435546875,14.06821009765625,12.80096435546875,14.06821009765625,12.80096435546875,14.06821009765625Z" fill-rule="evenodd" fill="#FF0000" fill-opacity="1"/></g><g style="mix-blend-mode:passthrough" transform="matrix(0.1414213478565216,-0.9899495244026184,0.9899495244026184,0.1414213478565216,-6.40913443698264,32.73496297511883)"><path d="M15.66729736328125,20.5904879296875C15.66729736328125,20.2988209296875,15.90374036328125,20.0623779296875,16.19540736328125,20.0623779296875C16.19540736328125,20.0623779296875,21.72770736328125,20.0623779296875,21.72770736328125,20.0623779296875C22.01936736328125,20.0623779296875,22.25581736328125,20.2988209296875,22.25581736328125,20.5904879296875C22.25581736328125,20.8821549296875,22.01936736328125,21.1185979296875,21.72770736328125,21.1185979296875C21.72770736328125,21.1185979296875,16.19540736328125,21.1185979296875,16.19540736328125,21.1185979296875C15.90374036328125,21.1185979296875,15.66729736328125,20.8821549296875,15.66729736328125,20.5904879296875C15.66729736328125,20.5904879296875,15.66729736328125,20.5904879296875,15.66729736328125,20.5904879296875Z" fill-rule="evenodd" fill="#FF0000" fill-opacity="1"/></g><g style="mix-blend-mode:passthrough" transform="matrix(0,-1,1,0,-5.9700927734375,34.3140869140625)"><path d="M14.1719970703125,20.67019984375C14.1719970703125,20.37853284375,14.4084400703125,20.14208984375,14.7001070703125,20.14208984375C14.7001070703125,20.14208984375,20.1768070703125,20.14208984375,20.1768070703125,20.14208984375C20.4684670703125,20.14208984375,20.7049170703125,20.37853284375,20.7049170703125,20.67019984375C20.7049170703125,20.96186684375,20.4684670703125,21.19830984375,20.1768070703125,21.19830984375C20.1768070703125,21.19830984375,14.7001070703125,21.19830984375,14.7001070703125,21.19830984375C14.4084400703125,21.19830984375,14.1719970703125,20.96186684375,14.1719970703125,20.67019984375C14.1719970703125,20.67019984375,14.1719970703125,20.67019984375,14.1719970703125,20.67019984375Z" fill-rule="evenodd" fill="#FF0000" fill-opacity="1"/></g></g></g></svg>