<svg xmlns="http://www.w3.org/2000/svg" xmlns:xlink="http://www.w3.org/1999/xlink" fill="none" version="1.1" width="36" height="36" viewBox="7 9 36 36"><defs><clipPath id="master_svg0_41_19655"><rect x="0" y="0" width="51" height="73" rx="0"/></clipPath><clipPath id="master_svg1_41_31934"><rect x="3.6837158203125" y="6.69598388671875" width="42" height="42" rx="0"/></clipPath><linearGradient x1="0" y1="0.11486510932445526" x2="1" y2="1" id="master_svg2_110_0360"><stop offset="0%" stop-color="#0DC4B6" stop-opacity="1"/><stop offset="100.00005960464478%" stop-color="#1AD1A9" stop-opacity="0.7400000095367432"/></linearGradient></defs><g style="mix-blend-mode:passthrough" clip-path="url(#master_svg0_41_19655)"><g style="mix-blend-mode:passthrough" clip-path="url(#master_svg1_41_31934)"><g style="mix-blend-mode:passthrough"><g style="mix-blend-mode:passthrough"><path d="M10.6837158203125,22.44598388671875C10.6837158203125,18.57999388671875,13.8177258203125,15.44598388671875,17.6837158203125,15.44598388671875C17.6837158203125,15.44598388671875,31.6837158203125,15.44598388671875,31.6837158203125,15.44598388671875C35.192815820312504,15.44598388671875,38.098815820312495,18.02809388671875,38.605515820312505,21.39598388671875C38.605515820312505,21.39598388671875,31.6837158203125,21.39598388671875,31.6837158203125,21.39598388671875C29.1709158203125,21.39598388671875,27.1337158203125,23.43309388671875,27.1337158203125,25.94598388671875C27.1337158203125,25.94598388671875,27.1337158203125,29.44598388671875,27.1337158203125,29.44598388671875C27.1337158203125,31.95888388671875,29.1709158203125,33.99598388671875,31.6837158203125,33.99598388671875C31.6837158203125,33.99598388671875,38.605515820312505,33.99598388671875,38.605515820312505,33.99598388671875C38.098815820312495,37.36388388671875,35.192815820312504,39.94598388671875,31.6837158203125,39.94598388671875C31.6837158203125,39.94598388671875,17.6837158203125,39.94598388671875,17.6837158203125,39.94598388671875C13.8177258203125,39.94598388671875,10.6837158203125,36.811883886718746,10.6837158203125,32.94598388671875C10.6837158203125,32.94598388671875,10.6837158203125,22.44598388671875,10.6837158203125,22.44598388671875C10.6837158203125,22.44598388671875,10.6837158203125,22.44598388671875,10.6837158203125,22.44598388671875ZM38.6837158203125,23.49598388671875C38.6837158203125,23.49598388671875,38.6837158203125,31.89598388671875,38.6837158203125,31.89598388671875C38.6837158203125,31.89598388671875,31.6837158203125,31.89598388671875,31.6837158203125,31.89598388671875C30.3306158203125,31.89598388671875,29.2337158203125,30.799083886718748,29.2337158203125,29.44598388671875C29.2337158203125,29.44598388671875,29.2337158203125,25.94598388671875,29.2337158203125,25.94598388671875C29.2337158203125,24.592883886718752,30.3306158203125,23.49598388671875,31.6837158203125,23.49598388671875C31.6837158203125,23.49598388671875,38.6837158203125,23.49598388671875,38.6837158203125,23.49598388671875C38.6837158203125,23.49598388671875,38.6837158203125,23.49598388671875,38.6837158203125,23.49598388671875ZM35.1837158203125,27.69598388671875C35.1837158203125,28.66248388671875,34.400215820312496,29.44598388671875,33.4337158203125,29.44598388671875C32.467215820312504,29.44598388671875,31.6837158203125,28.66248388671875,31.6837158203125,27.69598388671875C31.6837158203125,26.72948388671875,32.467215820312504,25.94598388671875,33.4337158203125,25.94598388671875C34.400215820312496,25.94598388671875,35.1837158203125,26.72948388671875,35.1837158203125,27.69598388671875C35.1837158203125,27.69598388671875,35.1837158203125,27.69598388671875,35.1837158203125,27.69598388671875Z" fill-rule="evenodd" fill="url(#master_svg2_110_0360)" fill-opacity="1"/></g></g></g></g></svg>