<svg xmlns="http://www.w3.org/2000/svg" xmlns:xlink="http://www.w3.org/1999/xlink" fill="none" version="1.1" width="24" height="24" viewBox="0 0 24 24"><defs><clipPath id="master_svg0_60_42938"><rect x="0" y="0" width="24" height="24" rx="0"/></clipPath></defs><g style="mix-blend-mode:passthrough" clip-path="url(#master_svg0_60_42938)"><g style="mix-blend-mode:passthrough"><path d="M12.000000095367431,4.850000095367432C8.051160095367432,4.850000095367432,4.850000095367432,8.051160095367432,4.850000095367432,12.000000095367431C4.850000095367432,15.948800095367432,8.051160095367432,19.15000009536743,12.000000095367431,19.15000009536743C15.948800095367432,19.15000009536743,19.15000009536743,15.948800095367432,19.15000009536743,12.000000095367431C19.15000009536743,8.051160095367432,15.948800095367432,4.850000095367432,12.000000095367431,4.850000095367432C12.000000095367431,4.850000095367432,12.000000095367431,4.850000095367432,12.000000095367431,4.850000095367432ZM3.1500000953674316,12.000000095367431C3.1500000953674316,7.112280095367431,7.112280095367431,3.1500000953674316,12.000000095367431,3.1500000953674316C16.887700095367432,3.1500000953674316,20.85000009536743,7.112280095367431,20.85000009536743,12.000000095367431C20.85000009536743,16.887700095367432,16.887700095367432,20.85000009536743,12.000000095367431,20.85000009536743C7.112280095367431,20.85000009536743,3.1500000953674316,16.887700095367432,3.1500000953674316,12.000000095367431C3.1500000953674316,12.000000095367431,3.1500000953674316,12.000000095367431,3.1500000953674316,12.000000095367431Z" fill-rule="evenodd" fill="#C8C8C8" fill-opacity="0.30000001192092896"/></g></g></svg>