<svg xmlns="http://www.w3.org/2000/svg" xmlns:xlink="http://www.w3.org/1999/xlink" fill="none" version="1.1" width="72" height="72" viewBox="0 0 72 72"><defs><clipPath id="master_svg0_12_6963"><rect x="9" y="10" width="52" height="52" rx="26"/></clipPath><clipPath id="master_svg1_12_4124"><rect x="19" y="20" width="32" height="32" rx="0"/></clipPath></defs><g style="mix-blend-mode:passthrough"><g style="mix-blend-mode:passthrough" clip-path="url(#master_svg0_12_6963)"><rect x="9" y="10" width="52" height="52" rx="26" fill="#07C160" fill-opacity="1"/><g clip-path="url(#master_svg1_12_4124)"><g><path d="M43.765251953125,38.2813C44.422951953125,38.2727,44.953951953125,37.7417,44.962551953125,37.084C44.962551953125,36.42,44.430551953125004,35.8867,43.765251953125,35.8867C43.099951953125,35.8867,42.567951953125004,36.42,42.567951953125004,37.084C42.567951953125004,37.7507,43.101251953125,38.2813,43.765251953125,38.2813ZM37.865251953125,38.2813C38.522951953125,38.2727,39.053951953125,37.7417,39.062551953124995,37.084C39.062551953124995,36.42,38.529251953125,35.8867,37.865251953125,35.8867C37.198551953125005,35.8867,36.667951953125,36.42,36.667951953125,37.084C36.667951953125,37.7507,37.199951953125,38.2813,37.865251953125,38.2813ZM46.621251953125,45.0013C46.445951953125004,45.0987,46.353351953125,45.2979,46.391951953125,45.4947C46.391951953125,45.5587,46.391951953125,45.623999999999995,46.425251953125,45.6907C46.555951953125,46.246700000000004,46.817251953125,47.132000000000005,46.817251953125,47.1653C46.817251953125,47.262699999999995,46.850551953125,47.328,46.850551953125,47.3947C46.850551953125,47.5572,46.718451953125,47.6887,46.555951953125,47.688C46.489251953125,47.688,46.457251953124995,47.656,46.391951953125,47.623999999999995L44.459951953125,46.509299999999996C44.318851953125005,46.4317,44.162051953125,46.387,44.001251953125,46.378699999999995C43.903951953125,46.378699999999995,43.805251953125,46.378699999999995,43.739951953125,46.4107C42.822551953125,46.6733,41.873251953125,46.804,40.858551953125,46.804C35.978551953125,46.804,32.049251953125,43.528,32.049251953125,39.464C32.049251953125,35.4013,35.978551953125,32.124,40.858551953125,32.124C45.737251953124996,32.124,49.666551953125,35.4013,49.666551953125,39.464C49.666551953125,41.66,48.487951953125,43.658699999999996,46.621251953125,45.002700000000004L46.621251953125,45.0013ZM41.230551953125,30.79867C41.106151953125,30.79453,40.981751953125,30.79231,40.857251953125,30.792C35.291951953125,30.792,30.715951953125,34.6053,30.715951953125,39.4653C30.715951953125,40.204,30.822551953125,40.9187,31.019951953125002,41.5987L30.901251953124998,41.5987C29.736261953125002,41.5869,28.577871953124998,41.4219,27.455921953125,41.108000000000004C27.357251953125,41.0747,27.258581953125,41.0747,27.159921953125,41.0747C26.962871953125,41.0788,26.770491953125,41.1355,26.602581953125,41.2387L24.271911953125,42.5787C24.205251953125,42.611999999999995,24.139921953125,42.6453,24.074581953125,42.6453C23.876661953125,42.6432,23.716741953125002,42.4832,23.714581953125,42.2853C23.714581953125,42.1867,23.746581953125002,42.121300000000005,23.779921953125,42.0227C23.811921953125,41.990700000000004,24.107921953125,40.9107,24.271911953125,40.2573C24.271911953125,40.1907,24.303921953125,40.0933,24.303921953125,40.028C24.303191953125,39.7963,24.194171953125,39.5783,24.009251953125002,39.4387C21.743921953125,37.8347,20.333251953125,35.448,20.333251953125,32.79733C20.333251953125,27.92667,25.093251953124998,24,30.933251953125,24C35.953251953125,24,40.173251953125,26.892,41.230551953125,30.79733L41.230551953125,30.79867ZM34.358551953125,31.356C35.122551953125,31.356,35.726551953124996,30.72,35.726551953124996,29.988C35.726551953124996,29.224,35.122551953125,28.62,34.358551953125,28.62C33.594551953125,28.62,32.990551953125,29.224,32.990551953125,29.988C32.990551953125,30.752,33.594551953125,31.356,34.358551953125,31.356ZM27.345251953125,31.356C28.109251953125,31.356,28.714591953125,30.72,28.714591953125,29.988C28.714591953125,29.224,28.109251953125,28.62,27.345251953125,28.62C26.582581953125,28.62,25.977251953125,29.224,25.977251953125,29.988C25.977251953125,30.752,26.582581953125,31.356,27.345251953125,31.356Z" fill="#FFFFFF" fill-opacity="1"/></g></g></g><g style="mix-blend-mode:passthrough"><path d="M12.742188,79.51562L23.2422,79.51562L23.2422,80.45312L12.742188,80.45312L12.742188,79.51562ZM27.648400000000002,83.2617L27.8164,84.0156L25.8828,85.4688L25.4648,84.8203Q25.6328,84.6758,25.7031,84.5625Q25.7773,84.4492,25.7773,84.2695L25.7773,81.55469L24.6953,81.55469L24.6953,80.85938L25.7773,80.85938L25.7773,79.20312L25.1406,79.20312L25.1406,78.73438L25.0078,78.98828L24.5625,78.375Q24.949199999999998,77.69141,25.324199999999998,76.70312Q25.7031,75.71094,25.9336,74.78906L26.6055,74.93359Q26.4102,75.66406,26.136699999999998,76.45703L27.7188,76.45703L27.7188,77.15234L25.8711,77.15234Q25.5586,77.90625,25.2461,78.51953L27.4453,78.51953L27.4453,79.20312L26.449199999999998,79.20312L26.449199999999998,80.85938L27.636699999999998,80.85938L27.636699999999998,81.55469L26.449199999999998,81.55469L26.449199999999998,84.2188L27.648400000000002,83.2617ZM30.6016,79.28906L32.074200000000005,79.28906L32.074200000000005,78.24219L30.2539,78.24219L30.2539,77.60938L32.074200000000005,77.60938L32.074200000000005,76.5625L30.6133,76.5625L30.6133,75.94141L32.074200000000005,75.94141L32.074200000000005,74.85938L32.7461,74.85938L32.7461,75.94141L34.6094,75.94141L34.6094,77.60938L35.2695,77.60938L35.2695,78.24219L34.6094,78.24219L34.6094,79.89844L32.7461,79.89844L32.7461,80.92188L34.800799999999995,80.92188L34.800799999999995,81.54297L32.7461,81.54297L32.7461,82.5508L35.113299999999995,82.5508L35.113299999999995,83.1758L32.7461,83.1758L32.7461,84.3164L32.074200000000005,84.3164L32.074200000000005,83.1758L30.1328,83.1758L30.1328,82.5508L32.074200000000005,82.5508L32.074200000000005,81.54297L30.5156,81.54297L30.5156,80.92188L32.074200000000005,80.92188L32.074200000000005,79.89844L30.6016,79.89844L30.6016,79.28906ZM35.2812,84.5938L35.1602,85.3008L31.9805,85.3008Q31.0312,85.3008,30.2969,84.9883Q29.5664,84.6758,29.0273,83.957Q28.6094,84.8086,27.875,85.7695L27.289099999999998,85.2383Q28.1172,84.2812,28.5977,83.2734Q28.1172,82.3242,27.8164,80.93359L28.3906,80.71484Q28.6094,81.6875,28.9336,82.4453Q29.3164,81.30469,29.4258,79.81641L27.949199999999998,79.81641L27.949199999999998,79.12109L29.4258,76.44531L28.0312,76.44531L28.0312,75.73438L30.1562,75.73438L30.1562,76.45703L28.7148,79.12109L30.1094,79.12109L30.1094,79.83984Q29.9883,80.89453,29.8125,81.70703Q29.6406,82.5156,29.3633,83.2227Q29.8203,83.8945,30.4727,84.2461Q31.1289,84.5938,32.039100000000005,84.5938L35.2812,84.5938ZM33.960899999999995,76.5625L32.7461,76.5625L32.7461,77.60938L33.960899999999995,77.60938L33.960899999999995,76.5625ZM32.7461,79.28906L33.960899999999995,79.28906L33.960899999999995,78.24219L32.7461,78.24219L32.7461,79.28906ZM44.8672,78.31641Q45.8047,79.13281,47.3398,79.82812L47.0156,80.57031Q45.9844,80.07812,45.2109,79.54688Q44.4375,79.01172,43.8594,78.38672L43.8594,79L40.0547,79L40.0547,78.375Q38.8555,79.68359,36.9961,80.63281L36.648399999999995,79.96094Q37.9453,79.32422,38.8672,78.50781Q38.1719,77.84766,37.3555,77.12891L37.835899999999995,76.63672Q38.5547,77.24609,39.3828,78.01562Q40.0938,77.27344,40.7148,76.20312L37.175799999999995,76.20312L37.175799999999995,75.51953L41.543,75.51953L41.543,76.23828Q40.9062,77.44141,40.0938,78.33984L43.8125,78.33984Q43.2227,77.69141,42.789100000000005,76.88672Q42.3594,76.08203,42.0352,75.03906L42.7578,74.89453Q42.9961,75.65234,43.2969,76.25391Q44.8086,75.35156,45.3477,74.95703L45.7812,75.55469Q44.6875,76.25391,43.6328,76.85156Q43.9805,77.41406,44.3516,77.80078Q45.8633,76.94922,46.4531,76.53906L46.8945,77.12891Q46.3203,77.5,44.8672,78.31641ZM38.4102,80.11719L45.5156,80.11719L45.5156,82.9102L38.4102,82.9102L38.4102,80.11719ZM39.226600000000005,82.2383L44.7109,82.2383L44.7109,80.80078L39.226600000000005,80.80078L39.226600000000005,82.2383ZM44.6758,83.3789Q44.2422,83.957,43.6562,84.6875L46.9922,84.6875L46.9922,85.4062L36.925799999999995,85.4062L36.925799999999995,84.6875L40.2461,84.6875L39.8398,84.1602Q39.4336,83.6328,39.2656,83.4414L39.863299999999995,83.0547L40.9336,84.375L40.4297,84.6875L42.707,84.6875Q43.0312,84.3164,43.4023,83.8477Q43.7773,83.3789,43.9688,83.0938L44.6758,83.3789ZM56.1953,82.6484Q57.3477,83.6094,59.3047,84.3633L58.9336,85.1094Q57.2266,84.375,56.1953,83.6367Q55.1641,82.8984,54.4688,81.84375L54.4688,84.3867Q54.4688,84.8906,54.3242,85.1602Q54.1797,85.4336,53.8477,85.5469Q53.5195,85.6602,52.9062,85.6602L51.7188,85.6602L51.5625,84.8906L52.6094,84.8906Q53.0625,84.8906,53.2773,84.8281Q53.4961,84.7617,53.5742,84.5938Q53.6523,84.4258,53.6523,84.0898L53.6523,82.6602L49.0195,84.8672L48.6719,84.125L53.6523,81.79688L53.6523,80.06641L48.8164,80.06641L48.8164,79.33594L56.832,79.33594L56.832,78.08984L50.0742,78.08984L50.0742,77.37891L56.832,77.37891L56.832,76.14453L49.7539,76.14453L49.7539,75.41016L57.6367,75.41016L57.6367,79.33594L59.2422,79.33594L59.2422,80.06641L54.4688,80.06641L54.4688,80.44141Q54.9375,81.36328,55.6094,82.0977Q57.1094,81.08984,57.9492,80.39062L58.4766,81.03906Q57.707,81.62891,56.1953,82.6484ZM50.0742,80.30859Q50.5195,80.62109,51.1289,81.06641Q51.7422,81.50781,52.0664,81.78516L51.5898,82.3945Q51.1562,82.0469,50.6094,81.63281Q50.0625,81.21875,49.6211,80.90625L50.0742,80.30859Z" fill="#767676" fill-opacity="1"/></g></g></svg>